<svg width="51" height="51" viewBox="0 0 51 51" fill="none" xmlns="http://www.w3.org/2000/svg">
<path fill-rule="evenodd" clip-rule="evenodd" d="M47.6118 39.3151H2.60786C1.23061 39.3151 0.110291 38.1945 0.110291 36.8173V7.065C0.110291 5.68746 1.23061 4.56714 2.60786 4.56714H15.5694V8.65319H4.7817C4.45826 8.65319 4.19576 8.91569 4.19576 9.23913V34.6437C4.19576 34.9669 4.45826 35.2297 4.7817 35.2297H45.4377C45.7612 35.2297 46.0237 34.9669 46.0237 34.6434V9.23913C46.0237 8.91569 45.7612 8.65319 45.4377 8.65319H41.044V4.56714H47.6118C48.9891 4.56714 50.1097 5.68775 50.1097 7.065V36.8173C50.1091 38.1945 48.9891 39.3151 47.6118 39.3151ZM26.7688 37.768H23.45C22.6786 37.768 22.6786 36.5961 23.45 36.5961H26.7688C27.5402 36.5961 27.5402 37.768 26.7688 37.768Z" fill="black"/>
<path fill-rule="evenodd" clip-rule="evenodd" d="M16.4199 44.7561C15.6983 44.7561 15.1792 44.0497 15.3945 43.3612C16.5128 39.787 14.8408 37.9923 16.5629 37.6729C17.1471 37.5645 17.7066 37.9495 17.8147 38.5337C18.1546 40.368 17.9996 42.2239 17.4453 44.002C17.3053 44.4508 16.8893 44.7564 16.4199 44.7564V44.7561ZM33.7998 44.7561C33.3307 44.7561 32.9147 44.4508 32.7747 44.002C32.2201 42.2242 32.0654 40.3683 32.4046 38.5337C32.6616 37.1444 34.7754 37.53 34.5173 38.9248C33.8683 42.4302 35.8292 44.1801 34.1188 44.7077C34.0157 44.7397 33.9082 44.7561 33.8001 44.7561H33.7998Z" fill="black"/>
<path fill-rule="evenodd" clip-rule="evenodd" d="M39.5177 50.0515H10.7017C9.90604 50.0515 10.1158 48.9447 10.1158 47.9746C10.1158 45.2846 12.304 43.0958 14.9946 43.0958H35.2254C37.9154 43.0958 40.1042 45.2843 40.1042 47.9746C40.1042 48.945 40.314 50.0515 39.5177 50.0515Z" fill="black"/>
<path fill-rule="evenodd" clip-rule="evenodd" d="M24.3468 24.8496H10.2327C8.81794 24.8496 8.81794 22.7013 10.2327 22.7013H24.3468C25.7613 22.7013 25.7619 24.8496 24.3468 24.8496ZM24.3468 30.1594H10.2327C8.81824 30.1594 8.81824 28.0111 10.2327 28.0111H24.3468C25.7613 28.0111 25.7619 30.1594 24.3468 30.1594Z" fill="black"/>
<path fill-rule="evenodd" clip-rule="evenodd" d="M39.9873 30.2779H28.238C27.9146 30.2779 27.6521 30.0151 27.6521 29.6919V23.1689C27.6521 22.8455 27.9149 22.583 28.238 22.583H39.9867C40.3102 22.583 40.5727 22.8455 40.5727 23.1689V29.6919C40.5732 30.0151 40.3102 30.2779 39.9873 30.2779Z" fill="black"/>
<path fill-rule="evenodd" clip-rule="evenodd" d="M20.7723 20.2773C20.4119 20.2773 20.1336 19.9524 20.1945 19.5932L20.837 15.8036H18.6538C17.4916 15.8036 16.5462 14.8579 16.5462 13.696V2.23592C16.5462 1.07371 17.4919 0.128296 18.6538 0.128296H37.9599C39.1222 0.128296 40.0682 1.074 40.0682 2.23592V13.6963C40.0682 14.8585 39.1224 15.8039 37.9599 15.8039H27.7684C27.3295 15.9349 21.3011 20.277 20.7726 20.277L20.7723 20.2773ZM25.5799 12.1544C25.2582 12.1544 24.994 11.8934 24.994 11.5685V3.67733C24.994 3.22587 25.4841 2.94549 25.8729 3.16991L32.707 7.11563C33.0972 7.34092 33.0978 7.90518 32.707 8.13018C31.8785 8.60743 25.957 12.1544 25.5799 12.1544ZM26.1664 4.69189V10.5536L31.2427 7.62276L26.1664 4.69189Z" fill="black"/>
</svg>
