<svg width="53" height="53" viewBox="0 0 53 53" fill="none" xmlns="http://www.w3.org/2000/svg">
<path d="M36.6532 22.4743C37.796 21.8419 39.204 21.8419 40.3468 22.4743L51.1526 28.4539C52.2957 29.0865 53 30.2557 53 31.5211V43.4789C53 44.7443 52.2957 45.9135 51.1526 46.5461L40.3468 52.5257C39.204 53.1581 37.796 53.1581 36.6532 52.5257L25.8474 46.5461C24.7043 45.9135 24 44.7443 24 43.4789V31.5211C24 30.2557 24.7043 29.0865 25.8474 28.4539L36.6532 22.4743Z" fill="#E06B9F"/>
<path fill-rule="evenodd" clip-rule="evenodd" d="M27 13.3333C21.6396 13.3333 17.2941 17.8105 17.2941 23.3333C17.2941 24.8636 17.5031 26.0548 17.9428 27.0815C18.3808 28.104 19.0671 29.0087 20.0878 29.9382L23.1001 32.5203C23.2479 32.647 23.3333 32.8348 23.3333 33.0328V39.3333C23.3333 39.7015 23.0436 40 22.6863 40C22.3289 40 22.0392 39.7015 22.0392 39.3333V33.3454L19.2528 30.9569C19.248 30.9528 19.2432 30.9486 19.2385 30.9443C18.1138 29.9215 17.2924 28.8654 16.7589 27.6198C16.2262 26.3761 16 24.989 16 23.3333C16 17.0741 20.9249 12 27 12C33.0751 12 38 17.0741 38 23.3333C38 25.0273 37.6521 26.4266 37.003 27.667C36.3608 28.8943 35.4408 29.9329 34.3417 30.9337L31.9608 33.3148V39.3333C31.9608 39.7015 31.6711 40 31.3137 40C30.9564 40 30.6667 39.7015 30.6667 39.3333V33.0328C30.6667 32.8526 30.7375 32.68 30.8631 32.5544L33.4513 29.9661C33.4586 29.9587 33.4661 29.9516 33.4738 29.9446C34.5189 28.9942 35.3202 28.0732 35.8639 27.0342C36.4029 26.0042 36.7059 24.8252 36.7059 23.3333C36.7059 17.8105 32.3604 13.3333 27 13.3333Z" fill="black"/>
<path fill-rule="evenodd" clip-rule="evenodd" d="M22 41.6923C22 41.31 22.292 41 22.6522 41H31.3478C31.708 41 32 41.31 32 41.6923H31.3478C32 41.6923 32 41.6919 32 41.6923L32 41.6959L32 41.7011L31.9998 41.7167C31.9996 41.7293 31.9992 41.7462 31.9986 41.7672C31.9973 41.8092 31.9947 41.8675 31.9899 41.9399C31.9801 42.0846 31.961 42.2866 31.9232 42.5273C31.8481 43.0053 31.6968 43.6533 31.3877 44.3096C31.0772 44.9687 30.6014 45.6488 29.8753 46.1626C29.1452 46.6793 28.2011 47 27 47C25.7989 47 24.8548 46.6793 24.1247 46.1626C23.3986 45.6488 22.9228 44.9687 22.6123 44.3096C22.3032 43.6533 22.1519 43.0053 22.0768 42.5273C22.039 42.2866 22.0199 42.0846 22.0101 41.9399C22.0053 41.8675 22.0027 41.8092 22.0014 41.7672C22.0008 41.7462 22.0004 41.7293 22.0002 41.7167L22 41.7011L22 41.6959L22 41.6939C22 41.6935 22 41.6923 22.6522 41.6923H22ZM23.3774 42.3846C23.4421 42.7594 23.5614 43.2285 23.779 43.6904C24.012 44.1852 24.3514 44.6589 24.8482 45.0105C25.3409 45.3592 26.0272 45.6154 27 45.6154C27.9728 45.6154 28.6591 45.3592 29.1518 45.0105C29.6486 44.6589 29.988 44.1852 30.221 43.6904C30.4386 43.2285 30.5579 42.7594 30.6226 42.3846H23.3774Z" fill="black"/>
<path fill-rule="evenodd" clip-rule="evenodd" d="M24.6167 22.6926C23.9191 22.928 23.6092 23.2059 23.5313 23.3844C23.2868 23.9451 23.2673 24.8261 23.3457 25.6643C23.3785 26.0147 23.4258 26.3335 23.4687 26.5814H24.9676C25.1372 26.5814 25.2917 26.6472 25.4077 26.7551L27.3325 27.9143C27.5306 28.0337 27.6522 28.2504 27.6522 28.4845V39.3372C27.6522 39.7033 27.3602 40 27 40C26.6398 40 26.3478 39.7033 26.3478 39.3372V28.8622L24.7619 27.907H22.9351C22.6341 27.907 22.3722 27.6976 22.3013 27.4002L22.9351 27.2442C22.3013 27.4002 22.3013 27.4004 22.3013 27.4002L22.301 27.3988L22.3004 27.3965L22.2986 27.3889L22.2926 27.3624C22.2875 27.3399 22.2803 27.3077 22.2716 27.2669C22.2542 27.1852 22.2305 27.0687 22.2044 26.9248C22.1521 26.638 22.0893 26.2388 22.0473 25.7898C21.9667 24.9284 21.9472 23.7453 22.3389 22.8472C22.655 22.1226 23.4457 21.691 24.2057 21.4345C25.0108 21.1628 25.986 21.0187 26.9465 21.0017C27.9063 20.9847 28.8941 21.0938 29.7217 21.3588C30.5191 21.6141 31.32 22.0649 31.6612 22.8473C32.0528 23.7453 32.0333 24.9284 31.9527 25.7898C31.9107 26.2388 31.8479 26.638 31.7957 26.9248C31.7695 27.0686 31.7458 27.1852 31.7284 27.2668C31.7197 27.3077 31.7126 27.3398 31.7075 27.3624L31.7014 27.3888L31.6997 27.3964L31.6991 27.3988L31.6988 27.3999C31.6988 27.4001 31.6988 27.4002 31.065 27.2442L31.6988 27.3999C31.628 27.6973 31.366 27.907 31.065 27.907H29.0325C28.6723 27.907 28.3803 27.6102 28.3803 27.2442C28.3803 26.8781 28.6723 26.5814 29.0325 26.5814H30.5313C30.5742 26.3335 30.6215 26.0147 30.6543 25.6643C30.7327 24.8262 30.7133 23.9451 30.4687 23.3844C30.3598 23.1346 30.018 22.8435 29.3297 22.6231C28.6716 22.4124 27.831 22.3118 26.9693 22.3271C26.1084 22.3423 25.2691 22.4724 24.6167 22.6926Z" fill="#303030"/>
<path fill-rule="evenodd" clip-rule="evenodd" d="M11.3366 2.1176C11.2815 2.03893 11.173 2.01981 11.0944 2.07489L3.1176 7.6603C3.03893 7.71538 3.01981 7.82381 3.07489 7.90248L3.87281 9.04202C3.92789 9.12069 4.03632 9.13981 4.11499 9.08472L12.0918 3.49932C12.1704 3.44423 12.1896 3.33581 12.1345 3.25714L11.3366 2.1176ZM10.4959 1.22024C11.0466 0.834647 11.8056 0.968479 12.1912 1.51916L12.9891 2.6587C13.3747 3.20938 13.2409 3.96838 12.6902 4.35397L4.71343 9.93938C4.16274 10.325 3.40374 10.1911 3.01815 9.64045L2.22024 8.50091C1.83465 7.95023 1.96848 7.19123 2.51916 6.80564L10.4959 1.22024Z" fill="#E06B9F"/>
<path fill-rule="evenodd" clip-rule="evenodd" d="M11.1132 4.22009C11.2816 3.98637 11.6077 3.93347 11.8414 4.10193L16.1273 7.19116C16.2822 7.30281 16.3637 7.49016 16.3399 7.6796L15.3035 15.901C15.2851 16.0471 15.2058 16.1786 15.0852 16.263C14.9645 16.3475 14.8138 16.3771 14.6702 16.3444L6.59025 14.5064C6.40406 14.464 6.25589 14.3233 6.20396 14.1396L4.7669 9.05555C4.68853 8.77831 4.84975 8.49002 5.127 8.41166C5.40425 8.33329 5.69253 8.49451 5.7709 8.77176L7.12371 13.5577L14.3404 15.1994L15.266 7.85644L11.2313 4.94832C10.9976 4.77986 10.9447 4.45382 11.1132 4.22009Z" fill="#E06B9F"/>
<path fill-rule="evenodd" clip-rule="evenodd" d="M10.6966 9.99551C10.9326 9.83026 11.2579 9.88761 11.4231 10.1236L15.2132 15.5364C15.3785 15.7724 15.3211 16.0977 15.0851 16.263C14.8491 16.4282 14.5238 16.3709 14.3586 16.1349L10.5685 10.7221C10.4032 10.486 10.4606 10.1608 10.6966 9.99551Z" fill="#E06B9F"/>
</svg>
