<svg width="370" height="265" viewBox="0 0 370 265" fill="none" xmlns="http://www.w3.org/2000/svg">
<g clip-path="url(#clip0_202_2489)">
<path fill-rule="evenodd" clip-rule="evenodd" d="M162.262 226.274C162.262 228.53 161.45 230.694 160.004 232.289C158.558 233.884 156.596 234.781 154.551 234.781C152.506 234.781 150.544 233.884 149.098 232.289C147.652 230.694 146.839 228.53 146.839 226.274C146.839 225.157 147.039 224.051 147.426 223.019C147.814 221.987 148.382 221.049 149.098 220.259C149.814 219.469 150.664 218.842 151.6 218.415C152.536 217.987 153.538 217.767 154.551 217.767C155.564 217.767 156.566 217.987 157.502 218.415C158.438 218.842 159.288 219.469 160.004 220.259C160.72 221.049 161.288 221.987 161.675 223.019C162.063 224.051 162.262 225.157 162.262 226.274Z" fill="#E06B9F"/>
<path d="M260.503 251.544C250.736 251.873 123.814 254.685 100.693 253.935C100.367 253.925 100.05 254.041 99.809 254.26C99.5675 254.479 99.4205 254.783 99.3988 255.108C99.3988 255.108 99.2327 257.346 99.8376 259.691C100.14 260.864 100.635 262.101 101.544 263.117C102.452 264.133 103.832 264.869 105.514 264.903C106.975 264.933 116.052 264.956 129.062 264.973C142.072 264.991 158.937 265 175.722 265C192.508 265 209.213 264.991 221.904 264.966C228.25 264.954 233.591 264.938 237.439 264.919C239.363 264.909 240.913 264.898 242.03 264.886C243.147 264.875 243.723 264.872 244.084 264.844C245.083 264.767 246.583 264.394 248.611 263.854C250.638 263.314 253.09 262.604 255.56 261.857C260.501 260.362 265.442 258.749 267.353 257.97C268.263 257.599 269.045 257.099 269.576 256.335C269.842 255.953 270.045 255.478 270.057 254.94C270.069 254.402 269.859 253.843 269.52 253.426C268.843 252.591 267.818 252.176 266.38 251.882C264.942 251.588 263.041 251.458 260.503 251.544ZM260.587 254.057C262.994 253.976 264.733 254.111 265.878 254.345C266.927 254.559 267.316 254.858 267.429 254.955C267.287 255.124 266.949 255.418 266.405 255.64C264.796 256.297 259.737 257.965 254.834 259.449C252.382 260.19 249.951 260.894 247.966 261.423C245.981 261.952 244.337 262.302 243.892 262.337C243.892 262.337 243.112 262.36 242.003 262.372C240.895 262.383 239.347 262.394 237.426 262.404C233.584 262.423 228.244 262.44 221.9 262.452C209.212 262.476 192.507 262.485 175.722 262.485C158.938 262.485 142.073 262.476 129.065 262.459C116.057 262.441 106.827 262.414 105.566 262.389C104.525 262.367 103.934 262.02 103.415 261.44C102.897 260.86 102.509 259.99 102.27 259.063C102.026 258.116 101.938 257.168 101.908 256.448C127.242 257.139 250.671 254.392 260.587 254.057Z" fill="#E06B9F"/>
<path fill-rule="evenodd" clip-rule="evenodd" d="M100.652 255.192C100.652 255.192 100.095 263.534 105.54 263.646C110.985 263.757 241.099 263.812 243.988 263.59C246.877 263.368 263.359 258.241 266.879 256.805C269.88 255.582 270.435 252.467 260.546 252.801C250.655 253.134 124.02 255.95 100.652 255.192Z" fill="#E06B9F"/>
<path d="M209.555 186.959C207.62 186.959 183.565 187.237 159.222 187.515C134.878 187.793 110.284 188.072 107.876 188.072C105.434 188.072 103.735 187.754 102.11 188.618C101.297 189.05 100.668 189.823 100.265 190.775C99.8623 191.727 99.6118 192.889 99.3918 194.435C99.1371 196.224 99.0601 200.622 99.0217 206.593C98.9833 212.563 99.0127 219.951 99.0679 227.153C99.1785 241.558 99.396 255.212 99.396 255.212C99.3985 255.377 99.4336 255.54 99.4991 255.692C99.5646 255.843 99.6593 255.98 99.7777 256.095C99.8962 256.21 100.036 256.301 100.19 256.362C100.343 256.422 100.507 256.452 100.672 256.45C101.005 256.444 101.322 256.307 101.553 256.067C101.785 255.828 101.912 255.506 101.907 255.173C101.907 255.173 101.691 241.526 101.58 227.135C101.525 219.94 101.496 212.557 101.534 206.608C101.572 200.659 101.708 195.99 101.879 194.79C102.084 193.346 102.325 192.353 102.578 191.754C102.832 191.156 103.023 190.981 103.289 190.84C103.821 190.557 105.318 190.587 107.876 190.587C110.47 190.587 134.908 190.308 159.251 190.03C183.594 189.752 207.878 189.474 209.555 189.474C211.151 189.474 211.712 189.745 212.171 190.44C212.63 191.134 212.956 192.639 213.023 195.065C213.147 199.535 211.135 245.733 209.709 253.698C209.68 253.86 209.683 254.027 209.718 254.188C209.753 254.35 209.82 254.502 209.914 254.638C210.009 254.774 210.129 254.889 210.268 254.978C210.406 255.067 210.561 255.128 210.724 255.157C211.052 255.216 211.389 255.142 211.663 254.952C211.936 254.762 212.123 254.471 212.182 254.143C213.815 245.021 215.687 200.535 215.534 194.995C215.462 192.415 215.231 190.512 214.267 189.052C213.302 187.591 211.57 186.959 209.555 186.959Z" fill="#E06B9F"/>
<path d="M129.777 64.0032C128.082 63.8955 126.32 63.9909 124.499 64.2923C124.17 64.3467 123.876 64.5295 123.682 64.8005C123.488 65.0716 123.41 65.4087 123.464 65.7377C123.518 66.0667 123.701 66.3606 123.972 66.5548C124.243 66.749 124.579 66.8276 124.908 66.7733C131.525 65.6782 136.787 67.4288 141.217 72.0945C141.33 72.2142 141.466 72.3104 141.617 72.3774C141.768 72.4445 141.931 72.4811 142.096 72.4853C142.26 72.4895 142.425 72.4611 142.579 72.4017C142.733 72.3424 142.873 72.2533 142.993 72.1394C143.234 71.9097 143.374 71.5936 143.383 71.2604C143.391 70.9273 143.267 70.6045 143.038 70.3629C139.348 66.4766 134.863 64.3264 129.777 64.0032Z" fill="#E06B9F"/>
<path d="M159.994 72.4818C157.463 72.3997 155.097 73.1685 152.979 74.5081C152.697 74.6862 152.498 74.969 152.424 75.2943C152.351 75.6195 152.41 75.9607 152.588 76.2426C152.766 76.5245 153.048 76.7241 153.373 76.7975C153.698 76.871 154.039 76.8122 154.32 76.6341C156.709 75.1238 159.109 74.5591 161.95 75.2926C162.109 75.3339 162.276 75.3434 162.439 75.3205C162.602 75.2975 162.76 75.2426 162.902 75.1588C163.044 75.075 163.168 74.964 163.268 74.8322C163.367 74.7003 163.439 74.5501 163.481 74.3903C163.522 74.2303 163.531 74.0638 163.508 73.9002C163.485 73.7366 163.43 73.5791 163.346 73.4368C163.263 73.2945 163.152 73.1701 163.02 73.0707C162.888 72.9714 162.738 72.8991 162.578 72.8579C161.7 72.6313 160.838 72.5092 159.994 72.4818Z" fill="#E06B9F"/>
<path d="M124.762 0.0264169C120.261 0.273156 115.894 2.26301 112.941 6.17557C110.257 9.73296 108.879 14.8924 109.316 21.5007C107.895 21.0362 105.923 20.5093 103.31 20.3585C98.9284 20.1055 93.395 21.2103 89.7368 26.4417C85.5409 32.4407 83.7625 40.5221 83.2543 46.9239C83.2543 46.9244 83.2543 46.9249 83.2543 46.9253C83.0826 49.0925 82.3932 55.1784 82.6094 61.9446C82.8257 68.7108 83.8887 76.2312 87.5246 81.5484C89.8031 84.8806 93.293 85.8115 96.344 85.3919C99.3951 84.9724 102.108 83.4196 103.707 81.6929C104.496 80.8402 105.066 79.9807 104.796 78.9074C104.661 78.3708 104.289 77.9552 103.933 77.7132C103.576 77.4713 103.22 77.3454 102.863 77.2501C101.435 76.8691 99.7201 76.9393 98.9558 76.8362C97.1743 76.5961 95.4575 75.0011 94.5972 72.8158C93.737 70.6305 93.7658 68.0171 95.1861 65.9145C96.6112 63.8043 98.2941 63.5076 100.065 63.8909C101.835 64.2743 103.565 65.6171 104.168 66.6456C104.781 67.6904 105.106 69.7992 105.274 71.8461C105.358 72.8696 105.421 73.8795 105.528 74.786C105.635 75.6925 105.738 76.4776 106.155 77.2319C106.837 78.4674 108.192 79.4562 109.79 79.1951C111.387 78.9339 112.653 77.4519 113.335 74.9838C114.62 70.3344 116.999 56.2584 126.804 50.6061C130.752 54.4985 134.955 57.0288 139.425 57.9004C143.918 58.7764 148.615 57.9444 153.392 55.5597C158.259 60.4858 162.619 63.4189 166.524 64.6417C170.605 65.9198 174.25 65.2922 177.027 63.2861C182.583 59.274 184.787 50.4624 184.197 41.3094C183.606 32.1565 180.126 22.4976 173.286 16.7254C166.707 11.1741 156.965 9.61261 144.637 15.6169C142.448 5.34491 133.311 -0.442152 124.762 0.0264169ZM124.9 2.53828C132.629 2.11463 141.198 7.52731 142.523 17.566C142.55 17.7668 142.625 17.9582 142.741 18.1239C142.857 18.2896 143.012 18.4247 143.192 18.5177C143.372 18.6107 143.571 18.6589 143.774 18.6581C143.976 18.6573 144.175 18.6076 144.354 18.5132C156.79 11.9469 165.574 13.507 171.666 18.6479C177.759 23.7888 181.132 32.8488 181.689 41.4722C182.245 50.0956 179.892 58.1175 175.558 61.2471C173.391 62.812 170.758 63.3326 167.276 62.2421C163.793 61.1515 159.507 58.3473 154.555 53.1951C154.364 52.9974 154.115 52.8673 153.844 52.8247C153.573 52.7822 153.296 52.8295 153.054 52.9594C148.373 55.4795 144.043 56.239 139.904 55.432C135.766 54.625 131.752 52.2191 127.837 48.1419C127.65 47.9475 127.405 47.8183 127.14 47.7736C126.874 47.7289 126.601 47.7709 126.361 47.8936C114.415 54.0064 112.055 70.1836 110.914 74.313C110.367 76.293 109.676 76.665 109.385 76.7126C109.093 76.7603 108.628 76.5112 108.354 76.0152C108.293 75.9038 108.117 75.2876 108.022 74.4898C107.927 73.6921 107.865 72.695 107.778 71.6398C107.605 69.5295 107.406 67.1969 106.336 65.3714C105.254 63.5295 103.115 61.9792 100.596 61.4338C98.0768 60.8883 95.0476 61.628 93.1042 64.5055H93.1056C91.1574 67.3899 91.1405 70.8931 92.2603 73.7377C93.38 76.5822 95.6685 78.9304 98.6208 79.3283C99.7861 79.4856 101.312 79.4881 102.096 79.6693C102.029 79.7696 102.017 79.8195 101.865 79.9837C100.761 81.1754 98.3781 82.5743 96.002 82.9011C93.6259 83.2278 91.3564 82.6997 89.598 80.1282C86.4724 75.557 85.3296 68.4123 85.1203 61.8646C84.9111 55.3169 85.576 49.4408 85.7596 47.1232C86.2434 41.0277 88.0248 33.2745 91.7949 27.8842C94.8781 23.4751 99.2895 22.6452 103.166 22.8689C107.042 23.0927 110.149 24.4476 110.149 24.4476C110.352 24.5364 110.574 24.57 110.794 24.5451C111.014 24.5201 111.223 24.4374 111.401 24.3054C111.579 24.1733 111.718 23.9967 111.806 23.7932C111.894 23.5898 111.926 23.3668 111.9 23.1468C111.047 16.01 112.46 10.9854 114.946 7.69111C117.432 4.39686 121.035 2.75011 124.9 2.53828Z" fill="#E06B9F"/>
<path fill-rule="evenodd" clip-rule="evenodd" d="M112.959 71.2396L105.92 67.6767C105.75 67.0559 105.533 66.4883 105.252 66.0084C103.567 63.1381 97.5141 60.2218 94.1456 65.2094C90.777 70.1964 94.0544 77.4437 98.7882 78.0817C100.758 78.3475 105.488 77.9193 102.786 80.8385C100.082 83.7569 92.598 86.7422 88.5612 80.8385C81.7997 70.9501 84.1519 51.5088 84.5072 47.0241C85.0032 40.7755 86.7833 32.8571 90.7662 27.1625C97.5076 17.5219 110.653 23.2956 110.653 23.2956C107.13 -6.18635 140.947 -3.9598 143.768 17.4005C194.706 -9.49567 194.002 96.0486 153.65 54.0673C143.897 59.3179 135.015 57.4312 126.932 49.0128C117.78 53.6959 114.517 64.8825 112.959 71.2396Z" fill="#E06B9F"/>
<path d="M105.528 66.4828C105.212 66.5869 104.949 66.8125 104.799 67.1101C104.725 67.2574 104.68 67.418 104.667 67.5827C104.655 67.7473 104.675 67.9128 104.726 68.0697C104.778 68.2266 104.86 68.3718 104.967 68.497C105.075 68.6223 105.206 68.7251 105.353 68.7997L122.214 77.3316C122.335 77.393 122.466 77.4342 122.601 77.4537L166.411 83.7754C166.574 83.799 166.74 83.7902 166.9 83.7495C167.06 83.7087 167.21 83.6369 167.343 83.538C167.475 83.439 167.586 83.315 167.67 83.173C167.755 83.031 167.81 82.8738 167.834 82.7103C167.857 82.5469 167.848 82.3803 167.808 82.2203C167.767 82.0602 167.695 81.9098 167.596 81.7775C167.498 81.6452 167.374 81.5338 167.232 81.4494C167.09 81.3651 166.933 81.3096 166.769 81.286L123.163 74.9951L106.487 66.5544C106.34 66.48 106.179 66.4354 106.015 66.4232C105.85 66.4109 105.685 66.4311 105.528 66.4828Z" fill="#E06B9F"/>
<path d="M122.81 74.9235C122.645 74.9134 122.48 74.9359 122.324 74.9897C122.168 75.0435 122.024 75.1275 121.9 75.237C121.777 75.3464 121.676 75.4792 121.604 75.6277C121.531 75.7761 121.489 75.9374 121.479 76.1022C121.105 82.3001 121.921 86.732 123.6 89.714C125.279 92.696 127.992 94.152 130.756 93.973C136.283 93.615 141.668 87.7291 143.36 79.2484C143.393 79.0863 143.393 78.9194 143.361 78.7572C143.329 78.5951 143.265 78.4408 143.174 78.3033C143.082 78.1658 142.964 78.0477 142.827 77.9558C142.689 77.864 142.535 77.8001 142.373 77.7679C142.211 77.7356 142.045 77.7356 141.883 77.7677C141.721 77.7999 141.567 77.8637 141.43 77.9554C141.293 78.0472 141.175 78.1651 141.083 78.3024C140.992 78.4397 140.928 78.5938 140.896 78.7558C139.366 86.4236 134.323 91.2223 130.593 91.4639C128.728 91.5847 127.105 90.8179 125.789 88.4791C124.472 86.1403 123.631 82.153 123.987 76.2538C124.007 75.9211 123.894 75.5941 123.673 75.3446C123.453 75.0952 123.142 74.9437 122.81 74.9235Z" fill="#E06B9F"/>
<path d="M148.995 78.7234C148.667 78.6627 148.329 78.7346 148.055 78.9233C147.78 79.112 147.592 79.4019 147.531 79.7296C146.518 85.1994 146.849 88.9198 148.33 91.3641C149.811 93.8085 152.53 94.5955 155.118 94.1468C157.706 93.6981 160.343 92.2187 162.62 90.2176C164.897 88.2166 166.814 85.681 167.775 82.9473C167.885 82.6328 167.866 82.2873 167.722 81.9868C167.578 81.6863 167.321 81.4554 167.006 81.3447C166.692 81.2343 166.347 81.2533 166.047 81.3975C165.747 81.5417 165.516 81.7993 165.405 82.1137C164.636 84.3041 162.967 86.5664 160.963 88.3274C158.959 90.0884 156.618 91.3345 154.691 91.6686C152.763 92.0028 151.429 91.6296 150.478 90.0605C149.527 88.4914 149.046 85.3456 150.001 80.1884C150.062 79.8606 149.99 79.522 149.801 79.2473C149.612 78.9725 149.322 78.7841 148.995 78.7234Z" fill="#E06B9F"/>
<path d="M145.791 78.2744C145.634 78.2258 145.468 78.2088 145.304 78.2243C145.139 78.2398 144.98 78.2876 144.834 78.3649C144.688 78.4422 144.559 78.5474 144.454 78.6747C144.349 78.8019 144.27 78.9487 144.221 79.1065C141.425 88.2126 142.52 95.6031 147.28 100.911C147.502 101.159 147.814 101.308 148.147 101.327C148.479 101.345 148.805 101.23 149.053 101.007C149.176 100.897 149.276 100.764 149.348 100.615C149.419 100.466 149.46 100.304 149.469 100.139C149.478 99.974 149.454 99.8089 149.399 99.653C149.344 99.4972 149.259 99.3538 149.149 99.2309C145.018 94.6249 143.987 88.4303 146.623 79.8461C146.671 79.6882 146.688 79.5224 146.673 79.3579C146.657 79.1935 146.609 79.0338 146.532 78.8878C146.455 78.7419 146.35 78.6126 146.223 78.5073C146.096 78.4021 145.949 78.3229 145.791 78.2744Z" fill="#E06B9F"/>
<path fill-rule="evenodd" clip-rule="evenodd" d="M137.407 83.7946C137.274 84.1485 137.099 84.4825 136.891 84.7775C136.683 85.0725 136.447 85.3227 136.195 85.5138C135.944 85.7049 135.683 85.8332 135.427 85.8914C135.171 85.9495 134.925 85.9364 134.702 85.8527C134.48 85.769 134.287 85.6164 134.132 85.4036C133.978 85.1909 133.866 84.9221 133.803 84.6126C133.74 84.3031 133.727 83.9591 133.765 83.6C133.803 83.241 133.891 82.874 134.024 82.5201C134.293 81.8052 134.729 81.1868 135.236 80.8008C135.744 80.4148 136.281 80.293 136.729 80.462C137.178 80.631 137.501 81.077 137.629 81.702C137.756 82.327 137.676 83.0797 137.407 83.7946Z" fill="#E06B9F"/>
<path fill-rule="evenodd" clip-rule="evenodd" d="M155.25 87.1298C155.117 87.4837 154.942 87.8177 154.734 88.1127C154.526 88.4077 154.289 88.6579 154.038 88.849C153.787 89.0402 153.526 89.1685 153.27 89.2266C153.013 89.2847 152.767 89.2716 152.545 89.1879C152.323 89.1042 152.129 88.9516 151.975 88.7388C151.821 88.5261 151.709 88.2573 151.646 87.9478C151.583 87.6384 151.57 87.2943 151.608 86.9352C151.646 86.5762 151.734 86.2092 151.867 85.8553C152.136 85.1404 152.572 84.522 153.079 84.136C153.586 83.75 154.123 83.6282 154.572 83.7972C155.021 83.9662 155.344 84.4123 155.471 85.0372C155.598 85.6622 155.519 86.4149 155.25 87.1298Z" fill="#E06B9F"/>
<path d="M154.946 96.1832C154.638 96.0553 154.293 96.0548 153.985 96.1819C153.677 96.309 153.432 96.5532 153.304 96.861C147.959 109.73 136.375 119.326 124.922 121.205C119.196 122.145 113.529 121.203 108.52 117.848C103.511 114.494 99.1204 108.677 96.159 99.6787C96.1075 99.5218 96.0255 99.3765 95.9178 99.2513C95.8101 99.126 95.6788 99.0233 95.5314 98.9489C95.3841 98.8744 95.2235 98.8298 95.0589 98.8176C94.8942 98.8053 94.7288 98.8257 94.572 98.8775C94.2557 98.9817 93.9936 99.2075 93.8435 99.5051C93.6934 99.8027 93.6675 100.148 93.7716 100.465C96.8636 109.86 101.56 116.214 107.122 119.939C112.684 123.664 119.07 124.713 125.329 123.686C137.846 121.632 149.959 111.468 155.624 97.8264C155.752 97.5184 155.752 97.1723 155.625 96.8641C155.498 96.556 155.253 96.311 154.946 96.1832Z" fill="#E06B9F"/>
<path d="M125.883 102.968C125.585 102.819 125.24 102.794 124.924 102.9C124.608 103.005 124.346 103.232 124.197 103.531C124.124 103.678 124.08 103.839 124.068 104.004C124.057 104.169 124.078 104.334 124.13 104.491C124.182 104.647 124.265 104.792 124.373 104.917C124.482 105.041 124.613 105.144 124.761 105.217C124.761 105.217 128.636 107.166 133.721 107.263C134.054 107.27 134.375 107.143 134.615 106.912C134.855 106.681 134.994 106.364 135.001 106.031C135.004 105.866 134.974 105.702 134.914 105.548C134.854 105.394 134.764 105.254 134.65 105.135C134.535 105.016 134.398 104.921 134.247 104.855C134.096 104.789 133.933 104.753 133.768 104.75C129.298 104.665 125.883 102.968 125.883 102.968Z" fill="#E06B9F"/>
<path fill-rule="evenodd" clip-rule="evenodd" d="M57.324 175.977C52.906 181.746 45.5839 198.511 43.1377 205.174C40.6908 211.838 41.3167 212.977 43.422 213.489C47.7387 214.54 70.163 222.374 73.861 223.456C77.559 224.538 77.4542 225.708 74.7711 227.157C66.7851 231.472 61.2718 239.63 57.3678 244.86C49.811 254.982 54.2562 259.543 51.3671 259.431C48.4773 259.32 31.168 257.111 22.808 255.316C0.591165 250.547 -1.05616 234.369 0.381558 220.584C1.95494 205.496 18.9018 174.952 29.5307 158.043C50.0887 125.341 71.5368 118.753 79.1503 116.821C87.0014 114.828 89.6988 116.017 90.3161 119.74C93.7859 140.664 105.891 135.686 109.091 133.622C112.89 131.172 113.45 128.17 118.533 128.247C150.906 128.737 156.363 166.989 157.856 175.175C159.35 183.362 157.999 184.501 155.53 184.715C151.823 185.036 116.789 185.159 107.232 185.271C97.6756 185.382 97.6756 186.494 97.0088 190.276C95.8 197.132 96.3692 228.94 96.3692 228.94C94.0932 229.653 89.3278 227.161 82.7141 223.53C76.0998 219.9 61.8762 215.7 53.3417 213.564C44.8073 211.428 44.9494 209.933 46.5852 202.957C48.2211 195.98 57.324 175.977 57.324 175.977ZM103.63 144.522C101.431 144.522 99.6466 146.419 99.6466 148.757C99.6466 151.095 101.431 152.992 103.63 152.992C105.827 152.992 107.612 151.095 107.612 148.757C107.612 146.419 105.827 144.522 103.63 144.522ZM103.63 168.379C102.022 168.379 100.718 169.766 100.718 171.475C100.718 173.185 102.022 174.572 103.63 174.572C105.237 174.572 106.541 173.185 106.541 171.475C106.541 169.766 105.237 168.379 103.63 168.379Z" fill="#E06B9F"/>
<path d="M68.5398 226.181C68.2377 226.041 67.8922 226.026 67.5793 226.14C67.2665 226.255 67.0119 226.489 66.8715 226.791C66.7312 227.094 66.7166 227.44 66.8309 227.753C66.9453 228.066 67.1792 228.321 67.4813 228.461C67.4813 228.461 73.0549 231.053 79.4313 234.514C85.8077 237.974 93.0285 242.402 95.9922 245.602C96.2186 245.847 96.5328 245.991 96.8656 246.004C97.1985 246.016 97.5227 245.896 97.767 245.67C98.0112 245.443 98.1555 245.128 98.1681 244.795C98.1807 244.462 98.0606 244.138 97.8342 243.893C94.312 240.089 87.0821 235.805 80.6285 232.303C74.1749 228.801 68.5398 226.181 68.5398 226.181Z" fill="#E06B9F"/>
<path d="M90.9607 244.651C90.8045 244.705 90.6605 244.789 90.5369 244.898C90.4132 245.008 90.3124 245.141 90.2401 245.29C90.0946 245.589 90.0738 245.934 90.1824 246.249C90.291 246.564 90.52 246.823 90.8191 246.969C90.8191 246.969 95.1144 249.148 96.9553 251.022C97.0709 251.14 97.2087 251.234 97.3606 251.298C97.5126 251.363 97.6758 251.397 97.8409 251.398C98.006 251.4 98.1698 251.369 98.3228 251.307C98.4759 251.245 98.6153 251.153 98.7329 251.037C98.9703 250.803 99.1051 250.485 99.1078 250.151C99.1104 249.818 98.9806 249.497 98.7469 249.259C96.2898 246.759 91.9196 244.71 91.9196 244.71C91.6204 244.564 91.2755 244.543 90.9607 244.651Z" fill="#E06B9F"/>
<path d="M87.6508 248.902C87.3224 248.845 86.9851 248.921 86.713 249.114C86.4409 249.306 86.2563 249.599 86.1998 249.927C86.1432 250.256 86.2193 250.593 86.4112 250.866C86.6031 251.138 86.8951 251.323 87.2232 251.38C87.2232 251.38 91.9319 252.205 96.3328 254.499C96.4792 254.576 96.6391 254.622 96.8035 254.637C96.9679 254.651 97.1336 254.633 97.291 254.583C97.4484 254.534 97.5945 254.454 97.7209 254.347C97.8473 254.241 97.9516 254.111 98.0278 253.965C98.1814 253.669 98.2114 253.324 98.1113 253.006C98.0111 252.688 97.7889 252.423 97.4936 252.269C92.6639 249.752 87.6508 248.902 87.6508 248.902Z" fill="#E06B9F"/>
<path d="M52.1345 242.879C52.0029 242.978 51.8921 243.103 51.8085 243.245C51.725 243.387 51.6703 243.545 51.6475 243.708C51.6247 243.872 51.6343 244.038 51.6758 244.198C51.7173 244.358 51.7898 244.508 51.8892 244.64C51.8892 244.64 53.5125 246.79 55.4697 249.203C57.4268 251.617 59.6122 254.233 61.1979 255.477C62.5139 256.51 63.5737 257.323 65.2733 257.753C66.973 258.184 69.1752 258.273 73.1493 258.238C81.0497 258.166 90.2578 258.032 97.6871 259.009C97.8508 259.031 98.0171 259.02 98.1766 258.978C98.3361 258.935 98.4857 258.861 98.6166 258.76C98.7476 258.66 98.8575 258.534 98.94 258.391C99.0225 258.248 99.076 258.09 99.0974 257.926C99.1189 257.762 99.1079 257.596 99.0651 257.436C99.0224 257.277 98.9486 257.128 98.8481 256.997C98.7476 256.866 98.6223 256.756 98.4794 256.673C98.3365 256.591 98.1787 256.537 98.0151 256.516C90.2935 255.5 81.0148 255.652 73.1269 255.723C69.2061 255.758 67.1418 255.633 65.8901 255.316C64.6385 254.999 64.0624 254.531 62.747 253.499C61.7014 252.678 59.3465 249.992 57.4212 247.618C55.4958 245.244 53.8939 243.123 53.8939 243.123C53.6929 242.857 53.3947 242.682 53.0647 242.636C52.7348 242.59 52.4002 242.678 52.1345 242.879Z" fill="#E06B9F"/>
<path d="M237.107 81.5932C236.786 81.5045 236.443 81.5469 236.153 81.7111C236.01 81.7925 235.883 81.9014 235.782 82.0317C235.68 82.1619 235.605 82.3109 235.561 82.4702C235.517 82.6294 235.505 82.7958 235.525 82.9598C235.546 83.1238 235.598 83.2822 235.679 83.4259C239.38 89.954 239.254 96.1505 235.14 102.694C235.052 102.834 234.992 102.99 234.965 103.153C234.937 103.316 234.942 103.482 234.978 103.643C235.015 103.805 235.083 103.957 235.179 104.092C235.274 104.226 235.395 104.341 235.535 104.429C235.817 104.606 236.158 104.664 236.482 104.59C236.807 104.516 237.089 104.316 237.266 104.034C241.769 96.8726 241.934 89.3615 237.865 82.184C237.7 81.8942 237.428 81.6817 237.107 81.5932Z" fill="#E06B9F"/>
<path d="M232.619 87.0057C232.299 87.0963 232.027 87.3105 231.864 87.6012C231.702 87.892 231.661 88.2355 231.751 88.5564C232.174 90.0565 232.169 91.2269 231.964 91.9832C231.76 92.7394 231.429 93.061 231.049 93.211C230.669 93.361 230.097 93.3632 229.292 92.9374C228.487 92.5115 227.506 91.6488 226.545 90.2403C226.357 89.9649 226.067 89.7755 225.74 89.7136C225.413 89.6518 225.074 89.7226 224.799 89.9105C224.524 90.0985 224.335 90.3881 224.273 90.7158C224.211 91.0434 224.282 91.3822 224.47 91.6576C225.605 93.322 226.839 94.485 228.117 95.1616C229.396 95.8382 230.777 96.0209 231.97 95.5503C233.163 95.0797 234.028 93.9798 234.39 92.6399C234.752 91.3 234.684 89.6972 234.17 87.873C234.079 87.5522 233.864 87.2806 233.574 87.118C233.283 86.9554 232.94 86.915 232.619 87.0057Z" fill="#E06B9F"/>
<path d="M252.767 78.2325C252.608 78.2763 252.459 78.3511 252.329 78.4525C252.199 78.554 252.09 78.6801 252.009 78.8237C251.927 78.9673 251.875 79.1256 251.854 79.2895C251.834 79.4534 251.846 79.6197 251.89 79.7789C252.752 82.9132 251.883 85.1479 250.908 85.8214C250.421 86.1582 249.918 86.2536 249.152 85.9631C248.385 85.6727 247.375 84.9013 246.341 83.4007C246.152 83.1263 245.862 82.9383 245.534 82.8781C245.206 82.8178 244.868 82.8902 244.594 83.0794C244.458 83.1731 244.342 83.2928 244.252 83.4315C244.163 83.5702 244.101 83.7252 244.071 83.8877C244.042 84.0502 244.044 84.2171 244.079 84.3786C244.113 84.5402 244.179 84.6933 244.273 84.8293C245.507 86.619 246.844 87.7774 248.263 88.315C249.682 88.8526 251.202 88.6737 252.336 87.8898C254.603 86.3221 255.363 82.9322 254.312 79.1109C254.269 78.9517 254.194 78.8027 254.092 78.6723C253.991 78.542 253.865 78.4329 253.722 78.3513C253.578 78.2697 253.42 78.2173 253.256 78.1969C253.093 78.1765 252.926 78.1886 252.767 78.2325Z" fill="#E06B9F"/>
<path d="M258.255 104.173C257.971 103.999 257.63 103.944 257.306 104.021C256.982 104.098 256.702 104.301 256.527 104.585C254.565 107.773 252.487 110.305 250.337 111.637C248.186 112.969 246.048 113.26 243.213 111.96C243.063 111.891 242.901 111.853 242.737 111.847C242.572 111.84 242.407 111.867 242.253 111.924C242.098 111.982 241.956 112.069 241.835 112.181C241.714 112.294 241.617 112.429 241.548 112.579C241.479 112.729 241.441 112.891 241.434 113.056C241.428 113.221 241.455 113.386 241.512 113.541C241.569 113.696 241.657 113.837 241.769 113.958C241.881 114.08 242.016 114.177 242.166 114.246C245.631 115.835 248.936 115.462 251.659 113.776C254.381 112.09 256.606 109.249 258.665 105.904C258.752 105.763 258.81 105.607 258.836 105.444C258.862 105.281 258.856 105.114 258.818 104.953C258.78 104.793 258.71 104.641 258.614 104.507C258.517 104.373 258.395 104.26 258.255 104.173Z" fill="#E06B9F"/>
<path d="M273.461 109.069C273.148 108.955 272.803 108.97 272.501 109.11C272.199 109.251 271.965 109.505 271.85 109.819C270.605 113.229 267.784 116.929 264.332 119.459C260.88 121.989 256.877 123.332 253.185 122.479C248.51 121.399 243.988 123.458 239.884 126.749C235.78 130.04 231.956 134.63 228.444 139.115C214.858 156.466 206.355 181.2 206.355 181.2C206.302 181.357 206.279 181.522 206.289 181.687C206.298 181.851 206.341 182.013 206.413 182.161C206.485 182.31 206.586 182.443 206.709 182.552C206.832 182.662 206.976 182.746 207.132 182.8C207.288 182.854 207.453 182.877 207.618 182.867C207.783 182.857 207.944 182.815 208.092 182.743C208.241 182.671 208.373 182.57 208.483 182.446C208.592 182.323 208.676 182.179 208.73 182.023C208.73 182.023 217.238 157.502 230.421 140.667C233.898 136.226 237.65 131.762 241.454 128.711C245.258 125.66 248.975 124.087 252.62 124.929C257.249 125.998 261.961 124.315 265.817 121.488C269.672 118.662 272.752 114.674 274.21 110.682C274.324 110.368 274.309 110.023 274.169 109.72C274.029 109.418 273.774 109.184 273.461 109.069Z" fill="#E06B9F"/>
<path d="M252.012 133.06C251.847 133.072 251.687 133.117 251.539 133.191C251.392 133.266 251.26 133.368 251.153 133.494C251.045 133.619 250.963 133.764 250.912 133.921C250.86 134.078 250.84 134.244 250.852 134.408C253.336 167.552 252.092 198.683 238.466 223.387C238.387 223.532 238.336 223.691 238.317 223.855C238.299 224.019 238.313 224.185 238.359 224.344C238.404 224.503 238.481 224.651 238.584 224.78C238.687 224.909 238.814 225.017 238.958 225.097C239.103 225.176 239.262 225.227 239.426 225.245C239.59 225.264 239.756 225.25 239.915 225.204C240.073 225.158 240.221 225.081 240.35 224.978C240.479 224.875 240.586 224.747 240.666 224.603C254.691 199.175 255.855 167.542 253.358 134.22C253.333 133.888 253.177 133.579 252.925 133.361C252.672 133.143 252.344 133.035 252.012 133.06Z" fill="#E06B9F"/>
<path d="M302.163 118.387C300.299 118.381 298.45 118.696 296.54 119.278C292.427 120.533 288.871 124.11 285.234 127.79C281.598 131.471 277.9 135.299 274.081 137.282C268.008 140.435 264.234 139.156 261.665 137.218C259.097 135.279 257.925 132.566 257.925 132.566C257.861 132.414 257.767 132.276 257.65 132.16C257.532 132.044 257.393 131.952 257.24 131.89C257.087 131.828 256.923 131.797 256.758 131.798C256.593 131.799 256.43 131.833 256.278 131.898C256.126 131.962 255.988 132.056 255.873 132.174C255.757 132.292 255.665 132.431 255.604 132.584C255.542 132.737 255.511 132.901 255.512 133.066C255.514 133.231 255.547 133.395 255.612 133.547C255.612 133.547 256.979 136.83 260.153 139.226C263.326 141.621 268.497 143.013 275.237 139.513C279.622 137.237 283.406 133.218 287.021 129.56C290.635 125.902 294.101 122.65 297.271 121.683C300.733 120.628 303.554 120.554 307.039 121.789C310.523 123.023 314.67 125.657 320.336 130.106C332.452 139.619 354.076 155.374 365.661 195.866C368.612 206.178 367.69 217.604 364.918 227.371C362.146 237.139 357.454 245.254 353.372 248.795C353.372 248.795 353.371 248.795 353.371 248.795C350.749 251.069 345.756 255.886 336.29 258.748C326.823 261.611 312.913 262.465 292.683 256.295C292.619 256.276 292.575 256.229 292.561 256.163C292.547 256.099 292.565 256.038 292.616 255.992C292.62 255.988 292.625 255.984 292.63 255.98C294.607 254.146 297.475 250.881 299.066 246.202C300.656 241.523 300.911 235.432 297.765 228.242C297.745 228.198 297.745 228.15 297.765 228.104C297.782 228.065 297.815 228.042 297.85 228.025C301.797 227.014 313.831 224.827 335.052 228.513C335.214 228.542 335.381 228.537 335.542 228.501C335.703 228.465 335.855 228.397 335.99 228.302C336.125 228.207 336.24 228.086 336.328 227.947C336.416 227.807 336.476 227.652 336.504 227.489C336.532 227.326 336.528 227.16 336.492 226.998C336.456 226.837 336.388 226.685 336.293 226.55C336.198 226.415 336.078 226.3 335.938 226.212C335.799 226.123 335.643 226.063 335.481 226.035C313.845 222.277 301.392 224.507 297.147 225.603C297.116 225.611 297.085 225.621 297.055 225.631C296.345 225.873 295.768 226.404 295.466 227.089C295.465 227.09 295.465 227.091 295.464 227.092C295.163 227.778 295.162 228.562 295.463 229.25C298.384 235.925 298.094 241.251 296.687 245.392C295.279 249.533 292.694 252.491 290.922 254.134L290.936 254.122C290.217 254.769 289.898 255.761 290.107 256.708C290.317 257.655 291.024 258.418 291.951 258.701C312.551 264.983 327.027 264.177 337.016 261.156C347.004 258.136 352.533 252.85 355.016 250.695C359.781 246.562 364.463 238.179 367.335 228.059C370.207 217.939 371.199 206.089 368.077 195.174C356.31 154.047 333.924 137.579 321.886 128.127C316.133 123.61 311.82 120.815 307.877 119.419C305.905 118.72 304.026 118.393 302.163 118.387Z" fill="#E06B9F"/>
<path d="M260.566 228.758C260.566 228.758 247.252 227.886 239.282 238.505C237.539 240.828 236.034 243.36 235.248 245.615C234.855 246.743 234.623 247.804 234.726 248.838C234.83 249.873 235.445 250.962 236.483 251.432C236.483 251.432 236.484 251.432 236.484 251.432C237.931 252.086 239.577 251.706 241.197 250.792C242.818 249.877 244.58 248.391 246.644 246.352C255.198 237.903 262.334 235.438 268.152 235.778C268.317 235.788 268.482 235.765 268.638 235.711C268.794 235.656 268.938 235.572 269.061 235.462C269.184 235.352 269.285 235.219 269.357 235.07C269.428 234.922 269.47 234.76 269.48 234.595C269.499 234.262 269.385 233.935 269.164 233.686C268.942 233.437 268.631 233.287 268.298 233.268C261.645 232.879 253.761 235.789 244.88 244.561C242.896 246.522 241.234 247.884 239.964 248.601C238.694 249.318 237.985 249.351 237.519 249.14C237.297 249.04 237.27 249.026 237.226 248.589C237.182 248.15 237.298 247.369 237.62 246.444C238.264 244.596 239.663 242.185 241.291 240.016C248.412 230.529 260.408 231.267 260.408 231.267C260.573 231.277 260.738 231.255 260.894 231.202C261.05 231.148 261.194 231.064 261.318 230.955C261.442 230.846 261.543 230.713 261.615 230.565C261.688 230.417 261.731 230.256 261.741 230.091C261.762 229.758 261.65 229.431 261.429 229.181C261.209 228.931 260.899 228.778 260.566 228.758Z" fill="#E06B9F"/>
<path d="M268.634 240.382C265.858 240.47 262.517 241.298 259.414 242.51C256.311 243.721 253.476 245.272 251.738 247.118C250.36 248.582 249.189 249.226 248.351 249.415C247.514 249.604 246.992 249.425 246.526 249.046C246.59 249.098 246.5 249.03 246.456 248.746C246.412 248.462 246.415 248.034 246.459 247.615C246.547 246.775 246.767 246.005 246.767 246.005C246.86 245.685 246.822 245.341 246.661 245.049C246.501 244.757 246.231 244.54 245.911 244.448C245.591 244.355 245.247 244.393 244.955 244.554C244.663 244.714 244.447 244.985 244.355 245.305C244.355 245.305 244.077 246.244 243.961 247.351C243.902 247.905 243.876 248.511 243.973 249.134C244.071 249.758 244.295 250.473 244.941 250.998C245.954 251.822 247.398 252.208 248.904 251.868C250.41 251.528 251.959 250.549 253.567 248.843C254.815 247.517 257.44 245.98 260.327 244.853C263.213 243.726 266.388 242.969 268.713 242.895C268.713 242.895 268.714 242.895 268.714 242.895C270.855 242.827 272 243.13 273.254 243.896C274.508 244.662 275.888 246.008 278.013 247.989C280.452 250.262 283.974 251.16 287.652 250.945C291.329 250.729 295.216 249.399 298.543 247.008C298.814 246.814 298.996 246.52 299.05 246.191C299.104 245.862 299.026 245.525 298.832 245.254C298.736 245.12 298.614 245.006 298.474 244.919C298.334 244.832 298.178 244.773 298.015 244.746C297.852 244.719 297.685 244.725 297.525 244.762C297.364 244.8 297.212 244.869 297.078 244.965C294.149 247.07 290.677 248.248 287.504 248.434C284.332 248.62 281.511 247.814 279.725 246.15C277.627 244.194 276.203 242.752 274.562 241.75C272.921 240.748 271.082 240.304 268.634 240.382Z" fill="#E06B9F"/>
<path d="M264.957 219.7C258.446 219.772 251.76 221.025 246.324 223.641C241.7 225.867 237.232 229.256 233.75 232.758C230.269 236.261 227.733 239.767 227.145 242.817C226.604 245.616 227.21 248.138 229.009 249.567C230.808 250.996 233.469 251.115 236.429 250.012C236.742 249.895 236.995 249.66 237.133 249.357C237.272 249.053 237.284 248.708 237.168 248.395C237.111 248.24 237.023 248.098 236.911 247.977C236.798 247.856 236.663 247.759 236.513 247.69C236.363 247.621 236.201 247.583 236.036 247.577C235.871 247.571 235.706 247.598 235.552 247.656C233.096 248.571 231.467 248.308 230.571 247.597C229.675 246.885 229.183 245.507 229.611 243.294C229.989 241.333 232.239 237.845 235.532 234.532C238.825 231.22 243.12 227.974 247.412 225.908C257.365 221.117 273.012 221.355 281.519 225.144C290.613 229.195 296.526 230.318 296.526 230.318C296.688 230.349 296.854 230.347 297.016 230.313C297.178 230.28 297.331 230.214 297.467 230.121C297.604 230.028 297.72 229.909 297.81 229.77C297.901 229.632 297.963 229.477 297.993 229.315C298.055 228.987 297.984 228.648 297.796 228.373C297.608 228.098 297.318 227.909 296.991 227.847C296.991 227.847 291.426 226.805 282.541 222.847C277.806 220.738 271.468 219.627 264.957 219.7Z" fill="#E06B9F"/>
<path d="M314.738 157.188C314.578 157.227 314.427 157.297 314.294 157.395C314.16 157.492 314.048 157.615 313.962 157.756C313.877 157.897 313.82 158.054 313.794 158.217C313.769 158.38 313.776 158.547 313.815 158.707C316.291 168.861 316.89 183.137 318.311 196.237C319.733 209.337 321.818 221.35 328.23 227.25C328.475 227.476 328.8 227.595 329.133 227.581C329.466 227.567 329.779 227.422 330.005 227.176C330.116 227.054 330.203 226.912 330.259 226.757C330.316 226.602 330.342 226.437 330.335 226.272C330.327 226.107 330.288 225.945 330.219 225.796C330.149 225.646 330.051 225.511 329.929 225.4C324.626 220.519 322.218 208.942 320.81 195.964C319.402 182.987 318.836 168.695 316.256 158.111C316.217 157.951 316.147 157.8 316.049 157.666C315.952 157.533 315.829 157.42 315.688 157.335C315.547 157.249 315.391 157.192 315.228 157.167C315.065 157.141 314.898 157.149 314.738 157.188Z" fill="#E06B9F"/>
<path d="M243.972 61.5263C243.708 61.5561 243.461 61.6686 243.266 61.8475C243.07 62.0265 242.936 62.2628 242.883 62.5226C242.883 62.5226 241.811 67.7366 238.28 73.1188C234.749 78.501 228.911 83.9366 219.106 84.5499C218.928 84.5611 218.754 84.6104 218.596 84.6943C218.438 84.7782 218.3 84.8948 218.191 85.0364C218.082 85.1779 218.004 85.3413 217.963 85.5153C217.921 85.6894 217.918 85.8702 217.952 86.0458C217.952 86.0458 224.153 118.137 252.235 124.848C252.395 124.886 252.562 124.893 252.725 124.866C252.888 124.84 253.044 124.782 253.185 124.696C253.325 124.609 253.447 124.496 253.544 124.362C253.641 124.228 253.711 124.077 253.749 123.916C253.826 123.592 253.771 123.25 253.597 122.966C253.422 122.682 253.142 122.479 252.818 122.402C228.185 116.516 221.586 90.4392 220.778 86.8639C230.546 85.7319 236.757 80.0233 240.38 74.4996C242.613 71.0959 243.76 68.1679 244.471 65.9747C248.803 73.9497 254.335 78.5421 259.04 80.907C264.282 83.5421 268.517 83.6981 268.517 83.6981C268.73 83.7054 268.942 83.6582 269.132 83.5609C269.322 83.4637 269.484 83.3196 269.603 83.1423C269.722 82.9649 269.793 82.7602 269.811 82.5473C269.829 82.3345 269.793 82.1206 269.705 81.9257C269.266 80.9478 269.092 79.1525 269.331 77.2795C269.57 75.4065 270.19 73.4443 271.033 72.0369C271.876 70.6294 272.837 69.8918 273.767 69.8463C274.696 69.8009 276.085 70.4104 277.863 72.8087C281.085 77.1536 280.025 81.0348 278.139 84.2061C276.254 87.3774 273.507 89.4978 273.507 89.4978C273.334 89.6305 273.198 89.806 273.114 90.0072C272.68 91.0323 272.657 92.2305 272.707 93.8774C272.757 95.5244 272.97 97.5203 273.37 99.6505C274.171 103.911 275.691 108.701 278.34 112.172C281.887 116.82 287.619 118.937 292.396 119.967C297.172 120.998 301.121 120.924 301.121 120.924C301.286 120.921 301.449 120.886 301.6 120.82C301.751 120.754 301.888 120.659 302.003 120.54C302.117 120.421 302.207 120.281 302.268 120.127C302.328 119.974 302.358 119.81 302.355 119.644C302.352 119.479 302.316 119.316 302.251 119.165C302.185 119.013 302.09 118.876 301.971 118.762C301.852 118.647 301.712 118.557 301.559 118.497C301.405 118.436 301.241 118.407 301.076 118.41C301.076 118.41 297.401 118.474 292.925 117.509C288.45 116.543 283.301 114.53 280.336 110.645C278.096 107.71 276.594 103.2 275.839 99.1846C275.461 97.177 275.263 95.2914 275.218 93.8017C275.176 92.4003 275.347 91.3935 275.414 91.1537C275.955 90.7239 278.347 88.774 280.298 85.4929C282.479 81.8262 283.72 76.4884 279.881 71.31C277.845 68.5643 275.738 67.232 273.643 67.3345C271.549 67.4369 269.96 68.9378 268.878 70.7444C267.796 72.5511 267.118 74.7793 266.84 76.9609C266.662 78.3591 266.724 79.6845 266.928 80.9364C265.477 80.7144 263.307 80.2375 260.167 78.6589C255.363 76.2441 249.495 71.5634 245.256 62.2532C245.146 62.012 244.962 61.8118 244.732 61.6812C244.501 61.5506 244.235 61.4964 243.972 61.5263Z" fill="#E06B9F"/>
<path d="M269.788 17.444C267.447 17.3409 264.971 17.4233 262.351 17.6966C252.042 18.7719 246.091 24.0642 242.871 29.0533C240.553 32.6459 239.797 35.4601 239.438 37.1249C231.864 32.9306 225.393 31.67 220.034 32.8098C214.316 34.026 209.969 37.8216 206.841 42.7436C200.584 52.5877 198.84 67.017 199.637 76.999C201.175 96.2253 196.246 100.296 193.103 106.472C193.103 106.472 193.102 106.472 193.102 106.472C191.544 109.532 189.642 114.389 189.424 120.12C189.207 125.851 190.725 132.466 195.921 138.766C206.488 151.576 225.365 147.156 225.365 147.156C225.69 147.082 225.972 146.881 226.15 146.599C226.327 146.316 226.385 145.975 226.31 145.65C226.236 145.325 226.036 145.043 225.754 144.865C225.472 144.688 225.131 144.63 224.806 144.704C224.806 144.704 207.292 148.602 197.857 137.164C193.053 131.34 191.737 125.441 191.935 120.216C192.134 114.99 193.898 110.448 195.341 107.613C198.198 101.999 203.717 96.5033 202.141 76.7983C201.384 67.3153 203.199 53.1589 208.96 44.0936C211.841 39.5609 215.617 36.32 220.555 35.2698C225.494 34.2195 231.751 35.3436 239.644 40.0493C239.823 40.156 240.026 40.2163 240.234 40.225C240.442 40.2338 240.649 40.1905 240.836 40.0992C241.024 40.0079 241.185 39.8714 241.307 39.702C241.428 39.5326 241.506 39.3356 241.532 39.1288C241.532 39.1288 242.076 34.9205 244.983 30.4172C247.889 25.914 253.035 21.1961 262.612 20.1972C272.659 19.1493 280.071 20.9879 285.958 25.2841C291.844 29.5802 296.26 36.4433 299.932 45.6372C303.623 54.8786 305.813 63.0387 310.229 69.5111C314.646 75.9835 321.377 80.574 333.493 82.424C337.337 83.0107 344.494 85.3723 350.054 89.8572C355.613 94.3421 359.645 100.74 357.951 110.024C356.247 119.36 350.627 124.702 343.934 127.626C337.242 130.55 329.459 130.91 323.972 129.949C323.644 129.891 323.307 129.967 323.034 130.158C322.761 130.35 322.576 130.642 322.519 130.97C322.461 131.299 322.536 131.637 322.728 131.91C322.919 132.182 323.211 132.368 323.539 132.426C329.517 133.473 337.672 133.106 344.939 129.931C352.207 126.755 358.57 120.623 360.422 110.476C362.284 100.275 357.661 92.7653 351.629 87.8996C345.598 83.0344 338.225 80.6033 333.873 79.9388H333.871C322.217 78.159 316.376 74.0601 312.304 68.0924C308.232 62.1244 306.016 54.0927 302.265 44.7026C298.495 35.265 293.868 27.9448 287.438 23.2521C282.616 19.7326 276.811 17.7531 269.788 17.444Z" fill="#E06B9F"/>
<path fill-rule="evenodd" clip-rule="evenodd" d="M225.086 145.93C225.086 145.93 206.89 150.089 196.889 137.965C186.888 125.84 191.221 112.938 194.222 107.042C197.222 101.147 202.445 96.3642 200.889 76.8985C199.334 57.4335 208.009 19.7256 240.287 38.9686C240.287 38.9686 242.596 21.0211 262.481 18.9468C283.01 16.8057 293.657 26.5382 301.099 45.1698C308.541 63.8013 309.911 77.5516 333.683 81.1813C341.878 82.4322 362.742 90.7658 359.186 110.25C355.63 129.734 335.22 133.195 323.756 131.187C322.831 130.46 321.948 129.772 321.111 129.116C311.962 121.933 306.611 119.292 301.099 119.667C301.099 119.667 285.85 119.942 279.338 111.408C274.448 105.002 273.293 92.8106 274.27 90.4971C274.27 90.4971 285.934 81.5829 278.872 72.0595C271.244 61.7716 266.159 77.1025 268.56 82.4415C268.56 82.4415 252.824 81.9077 244.113 62.7754C244.113 62.7754 239.667 84.5237 219.185 85.8047C219.185 85.8047 225.288 117.116 252.527 123.625C244.337 122.06 236.316 131.1 229.433 139.891C227.919 141.824 226.469 143.852 225.086 145.93Z" fill="#E06B9F"/>
<path d="M225.088 22.1617C221.68 21.9047 217.843 22.8793 213.589 25.3948C213.303 25.5644 213.095 25.841 213.012 26.1639C212.929 26.4868 212.977 26.8295 213.146 27.1167C213.316 27.4038 213.592 27.6118 213.915 27.6949C214.237 27.7781 214.58 27.7296 214.867 27.5601C218.797 25.2353 222.103 24.4585 224.899 24.6694C227.694 24.8802 230.042 26.0691 232.095 27.9404C236.2 31.6829 238.937 38.2257 240.39 44.0444C240.43 44.2046 240.501 44.3554 240.599 44.4882C240.698 44.6209 240.821 44.7329 240.962 44.8179C241.104 44.9029 241.261 44.9591 241.424 44.9833C241.587 45.0076 241.754 44.9995 241.914 44.9593C242.237 44.8785 242.515 44.6725 242.686 44.3867C242.857 44.101 242.908 43.7588 242.828 43.4354C241.306 37.341 238.537 30.4119 233.787 26.081C231.412 23.9156 228.496 22.4187 225.088 22.1617Z" fill="#E06B9F"/>
</g>
<defs>
<clipPath id="clip0_202_2489">
<rect width="370" height="265" fill="white"/>
</clipPath>
</defs>
</svg>
