<svg width="854" height="854" viewBox="0 0 854 854" fill="none" xmlns="http://www.w3.org/2000/svg">
<path fill-rule="evenodd" clip-rule="evenodd" d="M854 141.196C826.67 141.771 800.736 145.721 775.543 151.538C778.066 183.402 781.533 215.876 785.069 248.998L785.07 249.004L785.081 249.108C785.56 253.594 786.04 258.092 786.519 262.602C788.014 276.667 789.499 290.844 790.907 305.132C799.215 303.654 807.723 302.422 816.456 301.486C828.946 300.148 841.533 299.115 854 297.679V306.299C841.848 307.705 829.542 308.673 817.366 309.978C808.606 310.917 800.072 312.16 791.736 313.659C796.323 361.493 799.898 410.566 799.949 460.859C817.729 453.11 835.683 446.46 854 441.99V450.79C835.838 455.392 817.904 462.214 799.917 470.204C799.689 499.364 798.231 528.932 795.057 558.904C793.982 572.959 792.88 587.931 791.769 603.414C811.224 595.375 831.817 587.882 854 581.698V590.57C831.601 596.938 810.805 604.665 791.089 612.95C787.816 659.043 784.507 708.841 781.637 752.023L780.586 767.834C781.525 767.413 782.464 766.991 783.402 766.568C783.825 766.378 784.248 766.188 784.67 765.997C789.66 763.748 794.643 761.486 799.622 759.226C817.782 750.982 835.88 742.766 854 735.339V744.576C837.17 751.561 820.304 759.217 803.227 766.969C798.231 769.237 793.216 771.513 788.179 773.783C785.44 775.017 782.695 776.25 779.944 777.477C777.694 811.224 775.825 838.788 774.621 854H766.056C767.198 839.7 768.975 813.61 771.125 781.383C744.535 793.062 717.315 804.06 689.102 812.132C662.872 819.636 635.789 824.609 607.515 825.296C607.407 835.507 607.781 845.136 608.747 854H600.159C599.233 845.09 598.875 835.489 598.976 825.372C559.489 825.109 517.655 816.291 472.585 794.259C468.889 817.382 465.463 837.949 462.581 854H453.904C456.938 837.206 460.61 815.144 464.581 790.225C462.804 789.302 461.023 788.359 459.236 787.395C447.99 782.109 437.137 776.943 426.609 771.931L426.565 771.91L426.56 771.908C405.945 762.094 386.575 752.874 367.94 744.507C362.095 775.926 356.986 808.607 353.848 845.008C353.572 848.212 353.32 851.196 353.091 854H344.523C344.768 850.978 345.04 847.753 345.34 844.275C348.574 806.758 353.886 773.145 359.918 740.94C318.731 722.809 280.85 709.132 240.594 702.826C240.418 702.799 240.242 702.771 240.066 702.744L239.752 702.696C235.313 732.276 229.893 763.094 223.302 795.04C220.568 809.804 218.118 822.054 216.072 832.286C214.361 840.838 212.933 847.98 211.856 854H203.185C204.308 847.574 205.869 839.763 207.749 830.349C209.806 820.057 212.245 807.849 214.913 793.442L214.921 793.399L214.93 793.357C221.486 761.582 226.879 730.931 231.295 701.508C184.725 695.605 134.329 699.696 71.6931 718.609C68.0969 763.974 65.0855 809.208 63.6802 854H55.1366C56.5092 810.065 59.4208 765.728 62.911 721.333C43.2259 727.596 22.338 735.293 0 744.564L0 735.325C22.555 726.06 43.6856 718.379 63.6409 712.149C65.5932 687.836 67.6992 663.514 69.8011 639.237L69.8015 639.232C70.9919 625.483 72.1811 611.749 73.3403 598.04C74.0381 589.788 74.7251 581.545 75.3951 573.312C52.3232 577.639 27.3413 583.344 0 590.56V581.729C27.551 574.506 52.7692 568.801 76.1064 564.493C79.5938 520.843 82.5413 477.518 84.0288 434.808C58.1987 438.206 30.5051 443.515 0 450.837V442.056C30.5075 434.792 58.3016 429.52 84.31 426.159C85.6133 382.962 85.3533 340.418 82.5726 298.827C53.7202 299.991 28.7571 302.922 6.06874 305.586C4.02781 305.826 2.00529 306.064 0 306.297V297.683C1.40487 297.519 2.82001 297.353 4.24568 297.186C27.0837 294.511 52.6263 291.519 81.9657 290.316C78.7706 248.204 73.578 218.014 68.5538 188.803C66.9061 179.223 65.2765 169.749 63.7414 159.993C62.7565 153.735 61.8132 147.373 60.932 140.81C38.2175 140.46 17.6176 140.708 0 141.333V132.788C17.3511 132.179 37.5666 131.93 59.835 132.253C56.5798 105.573 54.4322 75.0788 54.663 34.6504C35.0996 33.7564 16.8422 33.0974 0 32.61L0 24.0664C16.8665 24.5533 35.1516 25.2117 54.7456 26.1053C54.8577 17.8251 55.0664 9.13918 55.3816 0H63.9267C63.6042 9.29316 63.3925 18.1114 63.2809 26.5056C81.2453 27.3714 100.256 28.4349 120.234 29.7422C143.324 31.2532 169.804 35.227 197.91 40.1908C198.733 27.6086 200.411 14.2976 203.134 0H211.831C208.924 14.9088 207.176 28.7042 206.37 41.7047C216.972 43.6249 227.776 45.6625 238.69 47.741C242.421 48.4515 246.166 49.167 249.92 49.8843L250.017 49.9028C280.608 55.7474 311.871 61.7207 342.021 66.2398C340.962 43.8065 341.462 21.7418 344.15 0L352.756 0C349.949 22.09 349.465 44.5555 350.628 67.4936C356.67 68.3471 362.66 69.1352 368.582 69.8448C394.375 72.9353 419.5 73.9397 444.161 73.4317C445.24 50.7064 448.251 26.4481 453.801 0H462.53C456.896 26.4056 453.829 50.57 452.72 73.1949C505.813 71.3551 556.851 62.7565 607.91 53.1967C604.695 33.4566 602.002 15.6879 600.249 0L608.843 0C610.569 15.1891 613.192 32.4321 616.32 51.6143C621.308 50.672 626.298 49.7235 631.29 48.7743L631.298 48.7728C674.9 40.4835 718.761 32.145 764.004 27.4799C764.466 18.2717 765.12 9.11152 765.99 0L774.569 0C773.713 8.83175 773.062 17.7116 772.596 26.6405C799.159 24.1925 826.219 23.0812 854 24.0511V32.5963C826.097 31.6064 798.925 32.7464 772.204 35.2514C770.831 70.3714 772.175 106.249 774.885 142.939C800.244 137.158 826.449 133.224 854 132.655V141.196ZM357.281 180.984C360.179 196.276 363.293 211.752 366.455 227.424L367.04 230.324C374.49 267.232 382.172 305.296 388.01 344.781C337.532 326.756 292.796 314.244 252.83 305.763C247.544 250.61 236.163 209.547 225.954 172.715C224.053 165.858 222.193 159.147 220.421 152.52C266.456 158.757 313.398 167.905 357.281 180.984ZM366.517 183.81C380.866 188.315 394.851 193.258 408.328 198.674L408.442 198.72L408.558 198.759C426.133 204.673 443.083 208.872 459.508 211.636C462.74 225.161 466.254 238.662 469.839 252.37L470.5 254.898C480.616 293.569 491.21 334.065 497.616 381.695C468.467 378.479 437.013 368.867 401.701 349.799L401.434 349.655L401.149 349.55C399.803 349.053 398.46 348.56 397.121 348.071C391.181 306.765 383.183 267.136 375.48 228.976L374.826 225.735C371.965 211.553 369.156 197.583 366.517 183.81ZM411.398 190.704C427.224 196.024 442.528 199.918 457.395 202.599C448.732 164.675 442.659 126.16 443.843 81.9783C418.982 82.4701 393.616 81.4454 367.566 78.3241C362.143 77.6744 356.666 76.9596 351.145 76.1896C353.301 107.896 358.411 140.519 364.72 174.312C380.763 179.228 396.386 184.675 411.398 190.704ZM630.345 196.145C579.882 211.054 527.59 221.165 468.629 213.033C471.611 225.335 474.821 237.666 478.101 250.209L478.773 252.78C489.055 292.081 499.889 333.499 506.335 382.474C508.737 382.638 511.125 382.76 513.498 382.841C547.105 383.984 578.138 376.945 609.257 366.434C620.904 362.5 632.43 358.134 644.056 353.552C641.93 296.18 636.627 243.52 630.345 196.145ZM629.191 187.58C578.012 202.791 525.654 212.923 466.507 204.1C457.499 165.378 451.141 126.498 452.391 81.7496C506.375 79.9335 558.055 71.2182 609.293 61.6261C610.425 68.4739 611.61 75.5445 612.831 82.8337L612.844 82.9099C618.043 113.947 623.906 148.945 629.191 187.58ZM638.637 193.649C640.119 193.195 641.6 192.738 643.08 192.277C657.128 187.904 671.034 183.259 684.92 178.621C712.1 169.542 739.202 160.49 767.135 153.554C769.654 185.078 773.073 217.093 776.543 249.584L776.544 249.591C777.038 254.219 777.533 258.857 778.027 263.505C779.548 277.816 781.057 292.223 782.482 306.728C754.826 312.28 729.38 320.472 705.241 329.43C690.954 334.732 677.278 340.237 663.892 345.624L663.89 345.625L663.885 345.627L663.881 345.629L663.85 345.641C660.031 347.178 656.236 348.706 652.457 350.216C650.227 293.141 644.902 240.741 638.637 193.649ZM681.653 170.695C709.386 161.423 737.401 152.058 766.468 144.931C763.707 107.963 762.3 71.6772 763.627 36.103C719.253 40.7505 676.05 48.9613 632.722 57.1957C627.719 58.1465 622.714 59.0976 617.706 60.0436C618.814 66.7404 619.974 73.6584 621.17 80.7933L621.172 80.8075C626.341 111.636 632.187 146.511 637.478 185.072C638.5 184.757 639.521 184.441 640.542 184.123C654.239 179.859 667.912 175.288 681.653 170.695ZM708.213 337.437C731.857 328.662 756.578 320.702 783.311 315.272C787.964 363.95 791.538 413.725 791.407 464.667C786.536 466.886 781.676 469.174 776.823 471.51C766.169 476.638 755.583 481.976 744.983 487.323C724.277 497.764 703.513 508.236 682.059 517.232C670.914 521.906 659.634 526.158 648.164 529.759C653.555 469.318 654.532 412.327 652.783 359.278C657.677 357.331 662.59 355.356 667.524 353.371C680.91 347.989 694.456 342.542 708.213 337.437ZM780.527 479.205C784.137 477.467 787.74 475.762 791.34 474.096C791.017 501.739 789.561 529.725 786.558 558.066L786.552 558.128L786.547 558.19C785.368 573.602 784.158 590.09 782.941 607.13C776.57 609.858 770.319 612.634 764.169 615.429C752.441 620.76 741.138 626.134 730.106 631.378L730.104 631.379L730.091 631.385L730.088 631.387C708.831 641.493 688.579 651.121 668.23 659.045C654.633 664.34 641.097 668.827 627.358 672.122C627.659 670.48 627.96 668.844 628.261 667.213C628.548 665.649 628.836 664.09 629.122 662.536C634.872 631.316 640.215 602.302 642.791 579.521C644.527 565.836 646.028 552.311 647.312 538.952C660.25 535.048 672.912 530.328 685.362 525.108C707.075 516.002 728.33 505.286 749.208 494.759C759.74 489.449 770.176 484.187 780.527 479.205ZM767.703 623.204C772.496 621.025 777.346 618.861 782.259 616.725C779.073 661.795 775.872 709.965 773.092 751.826L773.088 751.886L773.087 751.893C772.635 758.698 772.194 765.336 771.766 771.766C744 784.058 715.867 795.592 686.753 803.921C661.283 811.208 635.058 816.046 607.71 816.75C608.763 786.312 613.589 751.423 619.466 716.522C621.455 704.716 623.565 692.903 625.683 681.277C641.167 677.807 656.278 672.864 671.329 667.003C691.949 658.973 712.691 649.115 734.137 638.921L734.144 638.918L734.146 638.917L734.149 638.915L734.161 638.909L734.188 638.897C745.15 633.687 756.295 628.389 767.703 623.204ZM644.364 362.601C633.495 366.853 622.713 370.903 611.989 374.525C580.344 385.213 548.225 392.567 513.208 391.376C511.285 391.31 509.354 391.219 507.415 391.101C512.226 431.65 513.946 477.402 509.919 531.283C556.983 546.407 599.381 543.626 639.354 532.382C644.884 472.176 645.996 415.437 644.364 362.601ZM638.488 541.473C598.672 552.197 556.169 554.684 509.221 540.023C508.882 544.005 508.513 548.032 508.111 552.103L508.104 552.175L508.095 552.247C504.253 581.151 498.871 619.499 492.979 659.955C522.489 672.204 549.038 677.572 573.879 678.124C589.171 678.463 603.881 676.98 618.309 674.109C619.147 669.533 619.982 664.999 620.808 660.517L620.808 660.515C626.517 629.531 631.764 601.048 634.308 578.532L634.311 578.503L634.315 578.474C635.898 566.003 637.284 553.668 638.488 541.473ZM616.666 683.119C602.757 685.68 588.505 686.991 573.689 686.662C548.24 686.096 521.294 680.695 491.707 668.665C485.899 708.345 479.676 749.529 473.989 785.429C518.741 807.715 560.117 816.591 599.165 816.834C600.215 785.557 605.16 750.048 611.045 715.104C612.857 704.343 614.757 693.64 616.666 683.119ZM398.471 357.759C435.133 377.439 468.026 387.304 498.73 390.4C503.577 430.361 505.391 475.381 501.566 528.427C489.655 524.109 477.443 518.637 464.897 511.862L464.733 511.773L464.562 511.699C443.976 502.802 424.616 494.501 406.228 486.825C407.392 441.997 404.038 399.043 398.471 357.759ZM461.004 519.465C474.659 526.828 487.94 532.698 500.883 537.253C500.504 541.84 500.084 546.486 499.62 551.193C495.851 579.548 490.608 616.929 484.86 656.444C477.54 653.153 470.038 649.442 462.335 645.283L462.23 645.226L462.122 645.175C449.217 639.11 436.902 633.229 425.055 627.571L425.053 627.57C414.182 622.378 403.704 617.375 393.524 612.588C399.13 578.947 403.635 543.072 405.644 502.362C405.75 500.223 405.845 498.089 405.929 495.958C423.304 503.233 441.589 511.074 461.004 519.465ZM458.382 652.854C467 657.504 475.392 661.615 483.58 665.222C477.83 704.552 471.656 745.47 465.993 781.323C465.06 780.829 464.125 780.329 463.189 779.824L463.084 779.767L462.976 779.716C451.756 774.443 440.897 769.272 430.334 764.241L430.314 764.232L430.31 764.23C409.037 754.099 388.965 744.541 369.57 735.874C372.437 720.884 375.448 706.134 378.466 691.351L378.466 691.349L378.478 691.291L378.485 691.259C379.403 686.762 380.321 682.263 381.236 677.752C384.984 659.283 388.674 640.646 392.034 621.334C401.442 625.767 411.133 630.393 421.189 635.194C433.038 640.85 445.392 646.748 458.382 652.854ZM389.384 354.348C338.588 336.014 293.665 323.293 253.619 314.665C254.166 321.37 254.621 328.28 254.974 335.411L255.134 338.644L255.135 338.646C256.362 363.379 257.97 395.786 258.351 434.954C301.116 445.37 345.558 461.719 397.769 483.31C398.712 438.562 395.137 395.674 389.384 354.348ZM397.514 492.45C344.988 470.654 300.735 454.247 258.415 443.762C258.58 478.278 257.75 517.737 254.908 561.562C298.903 570.612 339.311 587.332 385.49 608.829C390.875 576.107 395.172 541.303 397.114 501.941C397.271 498.768 397.404 495.605 397.514 492.45ZM384.017 617.573C337.571 595.885 297.705 579.228 254.328 570.163C251.648 608.432 247.423 649.917 240.998 694.247L241.5 694.324L241.916 694.389C282.442 700.737 320.63 714.41 361.554 732.327C364.319 717.95 367.205 703.813 370.089 689.688L370.09 689.681L370.093 689.668C371.019 685.131 371.945 680.596 372.867 676.054C376.758 656.881 380.574 637.582 384.017 617.573ZM342.508 74.9464C311.608 70.3658 279.572 64.2446 248.454 58.2988C244.652 57.5722 240.863 56.8484 237.092 56.1302C226.553 54.1231 216.154 52.1618 205.969 50.3118C204.898 84.6028 210.379 113.586 218.078 143.591C264.152 149.695 311.267 158.68 355.52 171.564C349.439 138.546 344.534 106.382 342.508 74.9464ZM212.068 154.342C211.798 153.332 211.531 152.324 211.265 151.316C160.875 144.888 111.894 141.889 69.5712 140.97C70.3933 147.012 71.2678 152.884 72.1776 158.666C73.6862 168.253 75.2985 177.625 76.9361 187.144L76.9364 187.146C81.9875 216.508 87.2788 247.266 90.5077 290.021C100.688 289.737 111.316 289.681 122.433 289.934C157.44 290.732 197.444 294.578 244.073 303.953C238.766 250.949 227.769 211.257 217.741 175.065L217.74 175.062C215.797 168.048 213.89 161.165 212.068 154.342ZM122.238 298.472C157.344 299.272 197.656 303.182 244.897 312.834C245.53 320.237 246.052 327.895 246.445 335.833L246.604 339.048C247.807 363.285 249.374 394.867 249.789 432.944C240.085 430.751 230.446 428.868 220.802 427.305C180.008 420.694 139.195 419.799 92.8848 425.112C94.1471 382.234 93.8684 339.934 91.1124 298.539C101.015 298.272 111.37 298.224 122.238 298.472ZM219.435 435.735C229.55 437.375 239.662 439.371 249.864 441.718C250.069 476.283 249.284 515.882 246.456 559.927C200.424 551.586 150.03 551.644 84.7976 562.938C88.2478 519.538 91.157 476.366 92.6105 433.741C138.791 428.342 179.173 429.21 219.435 435.735ZM84.0918 571.731C150.108 560.107 200.303 560.116 245.883 568.504C243.22 606.886 238.996 648.529 232.541 693.058C185.316 687.046 134.588 691.081 72.4245 709.478C74.2959 686.338 76.3016 663.169 78.3062 640.014L78.3109 639.958L78.3117 639.949C79.501 626.212 80.6898 612.479 81.8499 598.76C82.6124 589.743 83.3623 580.732 84.0918 571.731ZM119.676 38.264C142.641 39.7668 169.125 43.7626 197.476 48.7871C196.242 83.3964 201.486 112.672 208.969 142.419C158.902 136.174 110.379 133.275 68.4578 132.405C65.1726 105.863 62.9833 75.5215 63.2008 35.0516C81.0213 35.9124 99.8725 36.9681 119.676 38.264Z" fill="#E06B9F"/>
</svg>
