<svg width="53" height="53" viewBox="0 0 53 53" fill="none" xmlns="http://www.w3.org/2000/svg">
<path d="M36.6532 22.4743C37.796 21.8419 39.204 21.8419 40.3468 22.4743L51.1526 28.4539C52.2957 29.0865 53 30.2557 53 31.5211V43.4789C53 44.7443 52.2957 45.9135 51.1526 46.5461L40.3468 52.5257C39.204 53.1581 37.796 53.1581 36.6532 52.5257L25.8474 46.5461C24.7043 45.9135 24 44.7443 24 43.4789V31.5211C24 30.2557 24.7043 29.0865 25.8474 28.4539L36.6532 22.4743Z" fill="#E06B9F"/>
<path fill-rule="evenodd" clip-rule="evenodd" d="M15.5661 6.25H37.4339C39.0854 6.25 40.3708 6.24999 41.4019 6.33424C42.4488 6.41977 43.2994 6.59588 44.0644 6.98571C45.3345 7.63285 46.3671 8.66547 47.0143 9.93556C47.4041 10.7007 47.5802 11.5512 47.6658 12.5981C47.75 13.6292 47.75 14.9146 47.75 16.566V37.434C47.75 39.0854 47.75 40.3708 47.6658 41.4019C47.5802 42.4488 47.4041 43.2994 47.0143 44.0644C46.3671 45.3345 45.3345 46.3671 44.0644 47.0143C43.2994 47.4041 42.4488 47.5802 41.4019 47.6658C40.3708 47.75 39.0854 47.75 37.434 47.75H15.566C13.9146 47.75 12.6292 47.75 11.5981 47.6658C10.5512 47.5802 9.70065 47.4041 8.93556 47.0143C7.66547 46.3671 6.63285 45.3345 5.98571 44.0644C5.59588 43.2994 5.41977 42.4488 5.33424 41.4019C5.24999 40.3708 5.25 39.0854 5.25 37.4339V16.5661C5.25 14.9146 5.24999 13.6292 5.33424 12.5981C5.41977 11.5512 5.59588 10.7007 5.98571 9.93556C6.63285 8.66547 7.66547 7.63285 8.93556 6.98571C9.70065 6.59588 10.5512 6.41977 11.5981 6.33424C12.6292 6.24999 13.9146 6.25 15.5661 6.25ZM11.7203 7.82925C10.7662 7.90721 10.1349 8.05809 9.61655 8.32222C8.6287 8.82555 7.82555 9.6287 7.32222 10.6165C7.05809 11.1349 6.90721 11.7662 6.82925 12.7203C6.75058 13.6832 6.75 14.9075 6.75 16.6V37.4C6.75 39.0925 6.75058 40.3168 6.82925 41.2797C6.90721 42.2338 7.05809 42.8651 7.32222 43.3834C7.82555 44.3713 8.6287 45.1744 9.61655 45.6778C10.1349 45.9419 10.7662 46.0928 11.7203 46.1707C12.6832 46.2494 13.9075 46.25 15.6 46.25H37.4C39.0925 46.25 40.3168 46.2494 41.2797 46.1707C42.2338 46.0928 42.8651 45.9419 43.3834 45.6778C44.3713 45.1744 45.1744 44.3713 45.6778 43.3834C45.9419 42.8651 46.0928 42.2338 46.1707 41.2797C46.2494 40.3168 46.25 39.0925 46.25 37.4V16.6C46.25 14.9075 46.2494 13.6832 46.1707 12.7203C46.0928 11.7662 45.9419 11.1349 45.6778 10.6165C45.1744 9.6287 44.3713 8.82555 43.3834 8.32222C42.8651 8.05809 42.2338 7.90721 41.2797 7.82925C40.3168 7.75058 39.0925 7.75 37.4 7.75H15.6C13.9075 7.75 12.6832 7.75058 11.7203 7.82925Z" fill="#E06B9F"/>
<path d="M28.1191 25.6134C28.0508 25.1186 27.6279 24.75 27.1285 24.75H26.8715C26.3721 24.75 25.9492 25.1186 25.8809 25.6134L25.7938 26.2451C25.7382 26.6482 25.4403 26.969 25.0622 27.1192C25.006 27.1416 24.9502 27.1648 24.895 27.1891C24.5222 27.3524 24.0844 27.3384 23.7588 27.0942L23.4512 26.8635C23.0531 26.5649 22.496 26.6045 22.1441 26.9564L21.9564 27.1441C21.6045 27.496 21.5649 28.0531 21.8635 28.4512L22.0942 28.7588C22.3384 29.0844 22.3524 29.5222 22.1891 29.895C22.1648 29.9502 22.1416 30.006 22.1192 30.0622C21.969 30.4403 21.6482 30.7382 21.2451 30.7938L20.6134 30.8809C20.1186 30.9492 19.75 31.372 19.75 31.8715V32.1285C19.75 32.6279 20.1186 33.0508 20.6134 33.1191L21.2451 33.2062C21.6482 33.2618 21.969 33.5597 22.1192 33.9378C22.1416 33.994 22.1648 34.0498 22.1891 34.105C22.3524 34.4778 22.3384 34.9156 22.0942 35.2412L21.8635 35.5488C21.5649 35.9469 21.6045 36.504 21.9564 36.8559L22.1441 37.0436C22.496 37.3955 23.0531 37.4351 23.4512 37.1365L23.7588 36.9058C24.0844 36.6616 24.5222 36.6476 24.895 36.811C24.9502 36.8352 25.006 36.8584 25.0622 36.8808C25.4403 37.031 25.7382 37.3519 25.7938 37.7549L25.8809 38.3866C25.9492 38.8814 26.3721 39.25 26.8715 39.25H27.1285C27.6279 39.25 28.0508 38.8814 28.1191 38.3866L28.2062 37.7549C28.2618 37.3519 28.5597 37.031 28.9378 36.8808C28.994 36.8584 29.0498 36.8352 29.105 36.8109C29.4778 36.6476 29.9156 36.6616 30.2412 36.9058L30.5488 37.1365C30.9469 37.4351 31.504 37.3955 31.8559 37.0436L32.0436 36.8559C32.3955 36.504 32.4351 35.9469 32.1365 35.5488L31.9058 35.2412C31.6616 34.9156 31.6476 34.4778 31.811 34.105C31.8352 34.0498 31.8584 33.994 31.8808 33.9378C32.031 33.5597 32.3519 33.2618 32.7549 33.2062L33.3866 33.1191C33.8814 33.0508 34.25 32.6279 34.25 32.1285V31.8715C34.25 31.3721 33.8814 30.9492 33.3866 30.8809L32.7549 30.7938C32.3519 30.7382 32.031 30.4403 31.8808 30.0622C31.8584 30.006 31.8352 29.9502 31.8109 29.895C31.6476 29.5222 31.6616 29.0844 31.9058 28.7587L32.1365 28.4512C32.4351 28.0531 32.3955 27.496 32.0436 27.1441L31.8559 26.9564C31.504 26.6045 30.9469 26.5649 30.5488 26.8635L30.2412 27.0942C29.9156 27.3384 29.4778 27.3524 29.105 27.1891C29.0498 27.1648 28.994 27.1416 28.9378 27.1192C28.5597 26.969 28.2618 26.6482 28.2062 26.2451L28.1191 25.6134Z" stroke="#161A1D" stroke-width="1.5" stroke-linecap="round" stroke-linejoin="round"/>
<path fill-rule="evenodd" clip-rule="evenodd" d="M27 31.5C26.7238 31.5 26.5 31.7238 26.5 32C26.5 32.2762 26.7238 32.5 27 32.5C27.2762 32.5 27.5 32.2762 27.5 32C27.5 31.7238 27.2762 31.5 27 31.5ZM25 32C25 30.8954 25.8954 30 27 30C28.1046 30 29 30.8954 29 32C29 33.1046 28.1046 34 27 34C25.8954 34 25 33.1046 25 32Z" fill="#161A1D"/>
<path fill-rule="evenodd" clip-rule="evenodd" d="M6.25 17C6.25 16.5858 6.58579 16.25 7 16.25L47 16.25C47.4142 16.25 47.75 16.5858 47.75 17C47.75 17.4142 47.4142 17.75 47 17.75L7 17.75C6.58579 17.75 6.25 17.4142 6.25 17Z" fill="#E06B9F"/>
<path fill-rule="evenodd" clip-rule="evenodd" d="M21 10.75C20.3096 10.75 19.75 11.3096 19.75 12C19.75 12.6904 20.3096 13.25 21 13.25C21.6904 13.25 22.25 12.6904 22.25 12C22.25 11.3096 21.6904 10.75 21 10.75ZM18.25 12C18.25 10.4812 19.4812 9.25 21 9.25C22.5188 9.25 23.75 10.4812 23.75 12C23.75 13.5188 22.5188 14.75 21 14.75C19.4812 14.75 18.25 13.5188 18.25 12Z" fill="#E06B9F"/>
<path fill-rule="evenodd" clip-rule="evenodd" d="M14 10.75C13.3096 10.75 12.75 11.3096 12.75 12C12.75 12.6904 13.3096 13.25 14 13.25C14.6904 13.25 15.25 12.6904 15.25 12C15.25 11.3096 14.6904 10.75 14 10.75ZM11.25 12C11.25 10.4812 12.4812 9.25 14 9.25C15.5188 9.25 16.75 10.4812 16.75 12C16.75 13.5188 15.5188 14.75 14 14.75C12.4812 14.75 11.25 13.5188 11.25 12Z" fill="#E06B9F"/>
</svg>
