<svg width="48" height="48" viewBox="0 0 48 48" fill="none" xmlns="http://www.w3.org/2000/svg">
<path d="M32.7497 6.49944C35.0684 6.50637 37.2901 7.43053 38.9297 9.07009C40.5692 10.7097 41.4934 12.9314 41.5003 15.2501V32.7494C41.4934 35.0681 40.5692 37.2899 38.9297 38.9294C37.2901 40.569 35.0684 41.4931 32.7497 41.5001H15.2503C12.9316 41.4931 10.7099 40.569 9.07034 38.9294C7.43077 37.2899 6.50661 35.0681 6.49969 32.7494V15.2501C6.50661 12.9314 7.43077 10.7097 9.07034 9.07009C10.7099 7.43053 12.9316 6.50637 15.2503 6.49944H32.7497ZM32.7497 2.99976H15.2503C8.5125 2.99976 3 8.51226 3 15.2501V32.7494C3 39.4873 8.5125 44.9998 15.2503 44.9998H32.7497C39.4875 44.9998 45 39.4873 45 32.7494V15.2501C45 8.51226 39.4875 2.99976 32.7497 2.99976Z" fill="white"/>
<path d="M35.3747 15.2501C34.8555 15.2501 34.348 15.0961 33.9163 14.8077C33.4846 14.5192 33.1482 14.1093 32.9495 13.6296C32.7508 13.1499 32.6988 12.6222 32.8001 12.113C32.9014 11.6037 33.1514 11.136 33.5185 10.7689C33.8856 10.4018 34.3534 10.1518 34.8626 10.0505C35.3718 9.94921 35.8996 10.0012 36.3792 10.1999C36.8589 10.3986 37.2689 10.735 37.5573 11.1667C37.8457 11.5984 37.9997 12.1059 37.9997 12.6251C38.0004 12.97 37.933 13.3117 37.8014 13.6305C37.6697 13.9493 37.4764 14.239 37.2325 14.4829C36.9886 14.7268 36.6989 14.9201 36.3801 15.0518C36.0613 15.1834 35.7196 15.2508 35.3747 15.2501ZM24 16.9994C25.3845 16.9994 26.738 17.41 27.8892 18.1792C29.0404 18.9484 29.9376 20.0417 30.4674 21.3208C30.9973 22.6 31.1359 24.0075 30.8658 25.3654C30.5957 26.7234 29.929 27.9707 28.95 28.9497C27.971 29.9287 26.7236 30.5954 25.3657 30.8656C24.0078 31.1357 22.6002 30.997 21.3211 30.4672C20.042 29.9374 18.9487 29.0401 18.1795 27.8889C17.4103 26.7377 16.9997 25.3843 16.9997 23.9997C17.0017 22.1438 17.7398 20.3644 19.0522 19.052C20.3646 17.7396 22.144 17.0014 24 16.9994ZM24 13.4997C21.9233 13.4997 19.8932 14.1156 18.1665 15.2693C16.4398 16.4231 15.094 18.0629 14.2993 19.9816C13.5045 21.9002 13.2966 24.0114 13.7018 26.0482C14.1069 28.085 15.1069 29.9559 16.5754 31.4244C18.0438 32.8928 19.9148 33.8929 21.9516 34.298C23.9884 34.7031 26.0996 34.4952 28.0182 33.7005C29.9368 32.9058 31.5767 31.56 32.7304 29.8332C33.8842 28.1065 34.5 26.0765 34.5 23.9997C34.5 21.215 33.3938 18.5443 31.4246 16.5751C29.4555 14.606 26.7848 13.4997 24 13.4997Z" fill="white"/>
</svg>
