<svg width="48" height="48" viewBox="0 0 48 48" fill="none" xmlns="http://www.w3.org/2000/svg">
<path d="M41.6409 2.99976H6.58875C4.67344 2.99976 3 4.37788 3 6.27069V41.4007C3 43.3038 4.67344 44.9998 6.58875 44.9998H41.6306C43.5563 44.9998 45 43.2926 45 41.4007V6.27069C45.0112 4.37788 43.5563 2.99976 41.6409 2.99976ZM16.0191 38.0088H10.0022V19.301H16.0191V38.0088ZM13.2188 16.4566H13.1756C11.25 16.4566 10.0031 15.0232 10.0031 13.2288C10.0031 11.4016 11.2828 10.0019 13.2516 10.0019C15.2203 10.0019 16.425 11.3913 16.4681 13.2288C16.4672 15.0232 15.2203 16.4566 13.2188 16.4566ZM38.0091 38.0088H31.9922V27.7798C31.9922 25.3291 31.1166 23.6548 28.9397 23.6548C27.2766 23.6548 26.2922 24.7798 25.8544 25.8757C25.6903 26.2694 25.6462 26.8057 25.6462 27.3532V38.0088H19.6294V19.301H25.6462V21.9044C26.5219 20.6576 27.8897 18.8632 31.0725 18.8632C35.0222 18.8632 38.01 21.4666 38.01 27.0794L38.0091 38.0088Z" fill="white"/>
</svg>
