<svg width="48" height="48" viewBox="0 0 48 48" fill="none" xmlns="http://www.w3.org/2000/svg">
<path fill-rule="evenodd" clip-rule="evenodd" d="M38.8809 9.10289C36.9394 7.16045 34.6329 5.62121 32.0941 4.57378C29.5554 3.52635 26.8345 2.99141 24.0881 2.99976C12.5625 2.99976 3.18 12.3354 3.17531 23.8123C3.17021 27.4668 4.13353 31.0573 5.96719 34.2185L3 44.9998L14.0859 42.1057C17.1546 43.7681 20.5897 44.6382 24.0797 44.637H24.0881C35.6128 44.637 44.9944 35.3004 45 23.8244C45.007 21.0875 44.4696 18.3764 43.4191 15.8491C42.3686 13.3217 40.8259 11.0285 38.8809 9.10289ZM24.0881 41.1241H24.0806C20.9694 41.1251 17.9148 40.2924 15.2344 38.7129L14.5997 38.3379L8.02125 40.0554L9.77719 33.672L9.36375 33.0157C7.62411 30.2615 6.70242 27.0699 6.70594 23.8123C6.70594 14.2751 14.5069 6.51539 24.0947 6.51539C28.6941 6.50717 33.1083 8.3262 36.3666 11.5724C39.625 14.8186 41.4604 19.226 41.4694 23.8254C41.4656 33.3635 33.6684 41.1241 24.0881 41.1241ZM33.6216 28.1688C33.0994 27.9082 30.5278 26.6501 30.0516 26.4766C29.5753 26.3032 29.2238 26.216 28.8759 26.7373C28.5281 27.2585 27.5259 28.4248 27.2212 28.7763C26.9166 29.1279 26.6119 29.1663 26.0897 28.9057C25.5675 28.6451 23.8828 28.0966 21.8869 26.3248C20.3334 24.9457 19.2853 23.2432 18.9806 22.7229C18.6759 22.2026 18.9478 21.9204 19.2094 21.6616C19.4447 21.4282 19.7316 21.0541 19.9931 20.7504C20.2547 20.4466 20.3419 20.2291 20.5153 19.8823C20.6887 19.5354 20.6025 19.2316 20.4722 18.9719C20.3419 18.7123 19.2966 16.1519 18.8616 15.1104C18.4369 14.096 18.0066 14.2338 17.6859 14.2179C17.3812 14.2029 17.0297 14.1991 16.6838 14.1991C16.4193 14.206 16.1591 14.2673 15.9194 14.3793C15.6797 14.4912 15.4657 14.6514 15.2906 14.8498C14.8116 15.371 13.4616 16.631 13.4616 19.1885C13.4616 21.746 15.3366 24.221 15.5953 24.5679C15.8541 24.9148 19.2797 30.1676 24.5212 32.4204C25.4946 32.8372 26.489 33.2027 27.5006 33.5154C28.7522 33.911 29.8913 33.8557 30.7913 33.7216C31.7953 33.5726 33.885 32.4635 34.3191 31.2485C34.7531 30.0335 34.7541 28.9929 34.6238 28.7763C34.4934 28.5598 34.1447 28.4285 33.6216 28.1688Z" fill="white"/>
</svg>
