<svg width="175" height="27" viewBox="0 0 175 27" fill="none" xmlns="http://www.w3.org/2000/svg">
<g clip-path="url(#clip0_202_2473)">
<g clip-path="url(#clip1_202_2473)">
<g clip-path="url(#clip2_202_2473)">
<path d="M44.8353 6.54024C44.8353 7.64304 44.5647 8.67948 44.0848 9.58827L43.8346 10.0171L43.0432 11.3854L42.0681 13.0754L35.2624 24.859L35.1398 25.0684C34.5374 26.0435 33.5009 26.7226 32.296 26.8349H31.5761C30.6878 26.7532 29.8862 26.3601 29.2888 25.7627L29.1561 25.6249V25.6147L23.3766 19.6156C23.3102 19.5441 23.2949 19.442 23.3459 19.3552L26.976 13.0703L27.9512 11.3803L32.4492 3.59432L32.8168 2.95613C33.9911 1.18449 36.0078 0 38.3002 0C41.9098 0 44.8404 2.92549 44.8404 6.54024H44.8353Z" fill="#E06B9F"/>
<path d="M27.7572 6.54024C27.7572 7.63794 27.4866 8.67437 27.0066 9.58316L26.7514 10.0222L25.9651 11.3854L24.9899 13.0754L22.0287 18.2065L18.1893 24.859L18.0617 25.0786C17.4592 26.0486 16.4228 26.7277 15.223 26.84H14.5031C13.6096 26.7583 12.8131 26.3601 12.2107 25.7627L12.0779 25.6249L6.19632 19.5084L0.375966 13.4481C0.243221 13.3102 0.340227 13.0805 0.534239 13.0805H5.65513C7.44719 13.0805 9.09118 12.4474 10.3778 11.3905C10.8781 10.9821 11.3223 10.5022 11.7001 9.97629C11.986 9.57295 12.2362 9.14919 12.4404 8.69479L15.3608 3.63006L15.7591 2.94081C16.9333 1.16918 18.9398 0 21.2169 0C24.8266 0 27.7572 2.92549 27.7572 6.54024Z" fill="#E06B9F"/>
<path d="M64.8501 6.64575H68.8228V23.7668H64.8501V21.9739C63.2212 23.4973 61.4692 24.259 59.5942 24.259C57.2271 24.259 55.27 23.4036 53.7231 21.6926C52.188 19.9465 51.4204 17.7668 51.4204 15.1536C51.4204 12.5872 52.188 10.4485 53.7231 8.73755C55.2583 7.02661 57.1802 6.17114 59.4888 6.17114C61.481 6.17114 63.2681 6.99146 64.8501 8.63208V6.64575ZM55.4634 15.1536C55.4634 16.7942 55.9028 18.1301 56.7817 19.1614C57.6841 20.2043 58.8208 20.7258 60.1919 20.7258C61.6567 20.7258 62.8403 20.2219 63.7427 19.2141C64.645 18.1711 65.0962 16.8469 65.0962 15.2415C65.0962 13.636 64.645 12.3118 63.7427 11.2688C62.8403 10.2493 61.6685 9.7395 60.2271 9.7395C58.8677 9.7395 57.731 10.2551 56.8169 11.2864C55.9146 12.3293 55.4634 13.6184 55.4634 15.1536ZM76.2759 6.64575L80.7583 16.4192L85.5923 5.0813L90.4614 16.4192L94.8911 6.64575H99.3208L90.356 25.05L85.5923 14.0286L80.7759 25.05L71.8286 6.64575H76.2759ZM114.034 6.64575H118.006V23.7668H114.034V21.9739C112.405 23.4973 110.653 24.259 108.778 24.259C106.411 24.259 104.454 23.4036 102.907 21.6926C101.372 19.9465 100.604 17.7668 100.604 15.1536C100.604 12.5872 101.372 10.4485 102.907 8.73755C104.442 7.02661 106.364 6.17114 108.672 6.17114C110.665 6.17114 112.452 6.99146 114.034 8.63208V6.64575ZM104.647 15.1536C104.647 16.7942 105.086 18.1301 105.965 19.1614C106.868 20.2043 108.004 20.7258 109.375 20.7258C110.84 20.7258 112.024 20.2219 112.926 19.2141C113.829 18.1711 114.28 16.8469 114.28 15.2415C114.28 13.636 113.829 12.3118 112.926 11.2688C112.024 10.2493 110.852 9.7395 109.411 9.7395C108.051 9.7395 106.915 10.2551 106 11.2864C105.098 12.3293 104.647 13.6184 104.647 15.1536ZM126.954 -5.92261V12.1829L132.526 6.64575H137.834L130.399 13.8352L138.379 23.7668H133.247L127.586 16.5422L126.954 17.175V23.7668H122.999V-5.92261H126.954ZM155.922 16.1379H143.653C143.758 17.5442 144.215 18.6633 145.024 19.4954C145.833 20.3157 146.87 20.7258 148.135 20.7258C149.12 20.7258 149.934 20.4915 150.579 20.0227C151.211 19.554 151.932 18.6868 152.741 17.4211L156.081 19.2844C155.565 20.1633 155.02 20.9192 154.446 21.552C153.872 22.1731 153.256 22.6887 152.6 23.0989C151.944 23.4973 151.235 23.7903 150.473 23.9778C149.711 24.1653 148.885 24.259 147.995 24.259C145.44 24.259 143.389 23.4387 141.842 21.7981C140.295 20.1458 139.522 17.9543 139.522 15.2239C139.522 12.5168 140.272 10.3254 141.772 8.64966C143.284 6.99731 145.288 6.17114 147.784 6.17114C150.303 6.17114 152.295 6.97388 153.76 8.57935C155.213 10.1731 155.94 12.3821 155.94 15.2063L155.922 16.1379ZM151.862 12.9036C151.311 10.7942 149.981 9.7395 147.872 9.7395C147.391 9.7395 146.94 9.81567 146.518 9.96802C146.096 10.1086 145.709 10.3196 145.358 10.6008C145.018 10.8704 144.725 11.1985 144.479 11.5852C144.233 11.9719 144.045 12.4114 143.917 12.9036H151.862ZM160.264 6.64575H164.237V8.22778C165.62 6.85669 167.178 6.17114 168.913 6.17114C170.905 6.17114 172.458 6.7981 173.571 8.052C174.532 9.11841 175.012 10.8586 175.012 13.2727V23.7668H171.04V14.2043C171.04 12.5168 170.805 11.3508 170.336 10.7063C169.879 10.05 169.047 9.72192 167.84 9.72192C166.528 9.72192 165.596 10.1555 165.045 11.0227C164.506 11.8782 164.237 13.3723 164.237 15.5051V23.7668H160.264V6.64575Z" fill="white"/>
</g>
</g>
</g>
<defs>
<clipPath id="clip0_202_2473">
<rect width="175" height="26.84" fill="white"/>
</clipPath>
<clipPath id="clip1_202_2473">
<rect width="175" height="26.84" fill="white"/>
</clipPath>
<clipPath id="clip2_202_2473">
<rect width="174.963" height="26.84" fill="white" transform="translate(0.0185547)"/>
</clipPath>
</defs>
</svg>
