<svg width="42" height="42" viewBox="0 0 42 42" fill="none" xmlns="http://www.w3.org/2000/svg">
<path d="M34.65 33.6H7.35C6.7725 33.6 6.3 34.0725 6.3 34.65V36.75C6.3 37.3275 6.7725 37.8 7.35 37.8H34.65C35.2275 37.8 35.7 37.3275 35.7 36.75V34.65C35.7 34.0725 35.2275 33.6 34.65 33.6ZM38.85 12.6C37.1109 12.6 35.7 14.0109 35.7 15.75C35.7 16.2159 35.805 16.6491 35.9888 17.0494L31.2375 19.8975C30.2269 20.5013 28.9209 20.16 28.3369 19.1363L22.9884 9.77814C23.6906 9.20064 24.15 8.33439 24.15 7.35001C24.15 5.61095 22.7391 4.20001 21 4.20001C19.2609 4.20001 17.85 5.61095 17.85 7.35001C17.85 8.33439 18.3094 9.20064 19.0116 9.77814L13.6631 19.1363C13.0791 20.16 11.7666 20.5013 10.7625 19.8975L6.01781 17.0494C6.195 16.6556 6.30656 16.2159 6.30656 15.75C6.30656 14.0109 4.89562 12.6 3.15656 12.6C1.4175 12.6 0 14.0109 0 15.75C0 17.4891 1.41094 18.9 3.15 18.9C3.32062 18.9 3.49125 18.8738 3.65531 18.8475L8.4 31.5H33.6L38.3447 18.8475C38.5087 18.8738 38.6794 18.9 38.85 18.9C40.5891 18.9 42 17.4891 42 15.75C42 14.0109 40.5891 12.6 38.85 12.6Z" fill="#EBEFEF"/>
</svg>
