<svg width="51" height="51" viewBox="0 0 51 51" fill="none" xmlns="http://www.w3.org/2000/svg">
<path d="M24.3287 24.3087H25.8912V25.8712H24.3287V24.3087Z" fill="#191D20"/>
<path d="M24.3287 31.34C24.3287 31.1328 24.411 30.9341 24.5576 30.7875C24.7041 30.641 24.9028 30.5587 25.11 30.5587H37.61C37.8172 30.5587 38.0159 30.641 38.1624 30.7875C38.3089 30.9341 38.3912 31.1328 38.3912 31.34V43.0587H41.5162V8.68372H21.2037V43.0587H24.3287V31.34ZM35.2662 11.0275C35.2662 10.8203 35.3485 10.6216 35.4951 10.475C35.6416 10.3285 35.8403 10.2462 36.0475 10.2462H39.1725C39.3797 10.2462 39.5784 10.3285 39.7249 10.475C39.8714 10.6216 39.9537 10.8203 39.9537 11.0275V14.1525C39.9537 14.3597 39.8714 14.5584 39.7249 14.7049C39.5784 14.8514 39.3797 14.9337 39.1725 14.9337H36.0475C35.8403 14.9337 35.6416 14.8514 35.4951 14.7049C35.3485 14.5584 35.2662 14.3597 35.2662 14.1525V11.0275ZM35.2662 17.2775C35.2662 17.0703 35.3485 16.8716 35.4951 16.725C35.6416 16.5785 35.8403 16.4962 36.0475 16.4962H39.1725C39.3797 16.4962 39.5784 16.5785 39.7249 16.725C39.8714 16.8716 39.9537 17.0703 39.9537 17.2775V20.4025C39.9537 20.6097 39.8714 20.8084 39.7249 20.9549C39.5784 21.1014 39.3797 21.1837 39.1725 21.1837H36.0475C35.8403 21.1837 35.6416 21.1014 35.4951 20.9549C35.3485 20.8084 35.2662 20.6097 35.2662 20.4025V17.2775ZM35.2662 23.5275C35.2662 23.3203 35.3485 23.1216 35.4951 22.975C35.6416 22.8285 35.8403 22.7462 36.0475 22.7462H39.1725C39.3797 22.7462 39.5784 22.8285 39.7249 22.975C39.8714 23.1216 39.9537 23.3203 39.9537 23.5275V26.6525C39.9537 26.8597 39.8714 27.0584 39.7249 27.2049C39.5784 27.3514 39.3797 27.4337 39.1725 27.4337H36.0475C35.8403 27.4337 35.6416 27.3514 35.4951 27.2049C35.3485 27.0584 35.2662 26.8597 35.2662 26.6525V23.5275ZM29.0162 11.0275C29.0162 10.8203 29.0985 10.6216 29.2451 10.475C29.3916 10.3285 29.5903 10.2462 29.7975 10.2462H32.9225C33.1297 10.2462 33.3284 10.3285 33.4749 10.475C33.6214 10.6216 33.7037 10.8203 33.7037 11.0275V14.1525C33.7037 14.3597 33.6214 14.5584 33.4749 14.7049C33.3284 14.8514 33.1297 14.9337 32.9225 14.9337H29.7975C29.5903 14.9337 29.3916 14.8514 29.2451 14.7049C29.0985 14.5584 29.0162 14.3597 29.0162 14.1525V11.0275ZM29.0162 17.2775C29.0162 17.0703 29.0985 16.8716 29.2451 16.725C29.3916 16.5785 29.5903 16.4962 29.7975 16.4962H32.9225C33.1297 16.4962 33.3284 16.5785 33.4749 16.725C33.6214 16.8716 33.7037 17.0703 33.7037 17.2775V20.4025C33.7037 20.6097 33.6214 20.8084 33.4749 20.9549C33.3284 21.1014 33.1297 21.1837 32.9225 21.1837H29.7975C29.5903 21.1837 29.3916 21.1014 29.2451 20.9549C29.0985 20.8084 29.0162 20.6097 29.0162 20.4025V17.2775ZM29.0162 23.5275C29.0162 23.3203 29.0985 23.1216 29.2451 22.975C29.3916 22.8285 29.5903 22.7462 29.7975 22.7462H32.9225C33.1297 22.7462 33.3284 22.8285 33.4749 22.975C33.6214 23.1216 33.7037 23.3203 33.7037 23.5275V26.6525C33.7037 26.8597 33.6214 27.0584 33.4749 27.2049C33.3284 27.3514 33.1297 27.4337 32.9225 27.4337H29.7975C29.5903 27.4337 29.3916 27.3514 29.2451 27.2049C29.0985 27.0584 29.0162 26.8597 29.0162 26.6525V23.5275ZM22.7662 11.0275C22.7662 10.8203 22.8485 10.6216 22.9951 10.475C23.1416 10.3285 23.3403 10.2462 23.5475 10.2462H26.6725C26.8797 10.2462 27.0784 10.3285 27.2249 10.475C27.3714 10.6216 27.4537 10.8203 27.4537 11.0275V14.1525C27.4537 14.3597 27.3714 14.5584 27.2249 14.7049C27.0784 14.8514 26.8797 14.9337 26.6725 14.9337H23.5475C23.3403 14.9337 23.1416 14.8514 22.9951 14.7049C22.8485 14.5584 22.7662 14.3597 22.7662 14.1525V11.0275ZM22.7662 17.2775C22.7662 17.0703 22.8485 16.8716 22.9951 16.725C23.1416 16.5785 23.3403 16.4962 23.5475 16.4962H26.6725C26.8797 16.4962 27.0784 16.5785 27.2249 16.725C27.3714 16.8716 27.4537 17.0703 27.4537 17.2775V20.4025C27.4537 20.6097 27.3714 20.8084 27.2249 20.9549C27.0784 21.1014 26.8797 21.1837 26.6725 21.1837H23.5475C23.3403 21.1837 23.1416 21.1014 22.9951 20.9549C22.8485 20.8084 22.7662 20.6097 22.7662 20.4025V17.2775ZM22.7662 26.6525V23.5275C22.7662 23.3203 22.8485 23.1216 22.9951 22.975C23.1416 22.8285 23.3403 22.7462 23.5475 22.7462H26.6725C26.8797 22.7462 27.0784 22.8285 27.2249 22.975C27.3714 23.1216 27.4537 23.3203 27.4537 23.5275V26.6525C27.4537 26.8597 27.3714 27.0584 27.2249 27.2049C27.0784 27.3514 26.8797 27.4337 26.6725 27.4337H23.5475C23.3403 27.4337 23.1416 27.3514 22.9951 27.2049C22.8485 27.0584 22.7662 26.8597 22.7662 26.6525Z" fill="#191D20"/>
<path d="M24.3287 11.8087H25.8912V13.3712H24.3287V11.8087Z" fill="#191D20"/>
<path d="M24.3287 18.0587H25.8912V19.6212H24.3287V18.0587Z" fill="#191D20"/>
<path d="M11.0475 11.8087V11.0275C11.0475 10.8203 10.9652 10.6216 10.8187 10.475C10.6721 10.3285 10.4734 10.2462 10.2662 10.2462V12.59C10.4734 12.59 10.6721 12.5077 10.8187 12.3611C10.9652 12.2146 11.0475 12.0159 11.0475 11.8087Z" fill="#191D20"/>
<path d="M32.1412 32.1212H36.8287V43.0587H32.1412V32.1212Z" fill="#191D20"/>
<path d="M25.8912 32.1212H30.5787V43.0587H25.8912V32.1212Z" fill="#191D20"/>
<path d="M36.8287 11.8087H38.3912V13.3712H36.8287V11.8087Z" fill="#191D20"/>
<path d="M36.8287 18.0587H38.3912V19.6212H36.8287V18.0587Z" fill="#191D20"/>
<path d="M8.70374 6.33997C8.49653 6.33997 8.29782 6.42228 8.15131 6.56879C8.0048 6.7153 7.92249 6.91402 7.92249 7.12122V7.90247C7.92249 8.10967 8.0048 8.30838 8.15131 8.45489C8.29782 8.60141 8.49653 8.68372 8.70374 8.68372V6.33997Z" fill="#191D20"/>
<path d="M23.5475 2.43372H39.1725V7.12122H23.5475V2.43372Z" fill="#191D20"/>
<path d="M30.5787 24.3087H32.1412V25.8712H30.5787V24.3087Z" fill="#191D20"/>
<path d="M36.8287 24.3087H38.3912V25.8712H36.8287V24.3087Z" fill="#191D20"/>
<path d="M30.5787 11.8087H32.1412V13.3712H30.5787V11.8087Z" fill="#191D20"/>
<path d="M30.5787 18.0587H32.1412V19.6212H30.5787V18.0587Z" fill="#191D20"/>
<path d="M9.48499 18.0587C9.22092 18.0587 8.96155 18.0423 8.70374 18.0189V43.0587H19.6412V14.9337H16.1092C15.304 15.911 14.2924 16.698 13.1472 17.2383C12.0019 17.7786 10.7513 18.0588 9.48499 18.0587ZM11.8287 32.9025H10.2662V31.34H11.8287V32.9025ZM11.8287 29.7775H10.2662V28.215H11.8287V29.7775ZM11.8287 26.6525H10.2662V25.09H11.8287V26.6525ZM11.8287 23.5275H10.2662V21.965H11.8287V23.5275ZM14.9537 32.9025H13.3912V31.34H14.9537V32.9025ZM14.9537 29.7775H13.3912V28.215H14.9537V29.7775ZM14.9537 26.6525H13.3912V25.09H14.9537V26.6525ZM14.9537 23.5275H13.3912V21.965H14.9537V23.5275ZM16.5162 21.965H18.0787V23.5275H16.5162V21.965ZM16.5162 25.09H18.0787V26.6525H16.5162V25.09ZM16.5162 28.215H18.0787V29.7775H16.5162V28.215ZM16.5162 31.34H18.0787V32.9025H16.5162V31.34Z" fill="#191D20"/>
<path d="M9.48499 16.4962C10.8756 16.4962 12.2351 16.0838 13.3913 15.3112C14.5476 14.5386 15.4488 13.4405 15.981 12.1557C16.5132 10.8709 16.6524 9.45717 16.3811 8.09324C16.1098 6.72931 15.4402 5.47646 14.4568 4.49312C13.4735 3.50979 12.2206 2.84012 10.8567 2.56882C9.49278 2.29752 8.07904 2.43676 6.79424 2.96894C5.50945 3.50112 4.41132 4.40233 3.63871 5.55862C2.86611 6.7149 2.45374 8.07432 2.45374 9.46497C2.45601 11.3291 3.19753 13.1162 4.51565 14.4343C5.83378 15.7524 7.62088 16.4939 9.48499 16.4962ZM6.35999 7.90247V7.12122C6.35999 6.49962 6.60691 5.90348 7.04645 5.46394C7.48599 5.0244 8.08213 4.77747 8.70374 4.77747V3.99622H10.2662V4.77747C10.8878 4.77747 11.484 5.0244 11.9235 5.46394C12.3631 5.90348 12.61 6.49962 12.61 7.12122V7.90247H11.0475V7.12122C11.0475 6.91402 10.9652 6.7153 10.8187 6.56879C10.6721 6.42228 10.4734 6.33997 10.2662 6.33997V8.68372C10.8878 8.68372 11.484 8.93065 11.9235 9.37019C12.3631 9.80973 12.61 10.4059 12.61 11.0275V11.8087C12.61 12.4303 12.3631 13.0265 11.9235 13.466C11.484 13.9055 10.8878 14.1525 10.2662 14.1525V14.9337H8.70374V14.1525C8.08213 14.1525 7.48599 13.9055 7.04645 13.466C6.60691 13.0265 6.35999 12.4303 6.35999 11.8087H7.92249C7.92249 12.0159 8.0048 12.2146 8.15131 12.3611C8.29782 12.5077 8.49653 12.59 8.70374 12.59V10.2462C8.08213 10.2462 7.48599 9.99929 7.04645 9.55975C6.60691 9.12021 6.35999 8.52407 6.35999 7.90247Z" fill="#191D20"/>
<path d="M2.45374 44.6212H47.7662V47.7462H2.45374V44.6212Z" fill="#191D20"/>
</svg>
