<svg width="51" height="51" viewBox="0 0 51 51" fill="none" xmlns="http://www.w3.org/2000/svg">
<path fill-rule="evenodd" clip-rule="evenodd" d="M42.2984 20.676C42.6942 22.1531 42.2306 23.6842 41.1827 24.7051L39.3177 17.7447C39.7412 17.8522 40.1479 18.0265 40.5217 18.263C41.3983 18.8178 42.0298 19.6735 42.2984 20.676ZM34.9031 14.5358L38.9639 29.6909L41.1889 30.0105L36.6702 13.1467L34.9031 14.5358ZM26.9123 20.8174L28.9028 28.2463L37.4939 29.4798L33.7356 15.4536L26.9123 20.8174ZM23.3628 29.4282L24.3437 29.1654L25.5778 33.7715L28.7426 32.9235L27.2757 27.4491L25.6691 21.453L21.5235 22.5639C17.0134 23.7724 18.8526 30.6367 23.3628 29.4282ZM48.5956 18.9891C48.3335 18.0108 47.908 17.1122 47.3546 16.3179C46.7849 15.5001 46.0772 14.7908 45.2708 14.2171C44.9641 13.9988 44.5385 14.0706 44.3202 14.3773C44.102 14.6841 44.1737 15.1098 44.4805 15.3279C45.1563 15.8087 45.7515 16.4062 46.2331 17.0976C46.6989 17.7662 47.0567 18.5212 47.2766 19.3415C47.4973 20.1651 47.5657 20.9999 47.4973 21.8134C47.4266 22.6539 47.2109 23.4676 46.8673 24.219C46.7109 24.5611 46.8616 24.9653 47.2037 25.1216C47.5458 25.2779 47.9499 25.1272 48.1063 24.7852C48.518 23.8849 48.7756 22.9175 48.8591 21.9255C48.9402 20.9614 48.8585 19.9699 48.5956 18.9891ZM44.4638 17.8744C44.0406 17.2677 43.5179 16.7436 42.9246 16.3221C42.6179 16.1038 42.1923 16.1756 41.974 16.4823C41.7558 16.7891 41.8275 17.2147 42.1343 17.4329C42.6044 17.7668 43.0165 18.1792 43.3477 18.6541C43.6666 19.1114 43.9127 19.632 44.0654 20.2019C44.2176 20.7699 44.2647 21.3461 44.2171 21.9079C44.1679 22.4888 44.0189 23.0504 43.7816 23.5684C43.6252 23.9104 43.7759 24.3146 44.118 24.4709C44.4601 24.6272 44.8642 24.4766 45.0205 24.1345C45.3257 23.4683 45.5169 22.753 45.5789 22.0201C45.6392 21.3079 45.5789 20.5749 45.3845 19.8494C45.1917 19.1299 44.8759 18.4653 44.4638 17.8744ZM15.9924 40.5712H1.33087V29.6993H15.9924V40.5712ZM10.8423 35.1353L8.37706 33.7119L5.91183 32.2886V37.9819L8.37706 36.5586L10.8423 35.1353ZM8.93204 19.4935H1.33087V9.98877H15.9924V19.4934H13.4458V22.8859L8.93204 19.4934V19.4935ZM10.6148 14.4972C10.6148 14.8747 10.9208 15.1808 11.2984 15.1808H12.208C12.5856 15.1808 12.8916 14.8747 12.8916 14.4972C12.8916 14.1196 12.5856 13.8136 12.208 13.8136H11.2984C10.9208 13.8136 10.6148 14.1196 10.6148 14.4972ZM5.61456 14.4972C5.61456 14.1196 5.30851 13.8136 4.93097 13.8136H4.0214C3.64386 13.8136 3.33781 14.1196 3.33781 14.4972C3.33781 14.8747 3.64386 15.1808 4.0214 15.1808H4.93097C5.30851 15.1808 5.61456 14.8747 5.61456 14.4972ZM8.56945 15.1808C8.94698 15.1808 9.25304 14.8747 9.25304 14.4972C9.25304 14.1196 8.94698 13.8136 8.56945 13.8136H7.65988C7.28234 13.8136 6.97628 14.1196 6.97628 14.4972C6.97628 14.8747 7.28234 15.1808 7.65988 15.1808H8.56945ZM16.6759 8.62168H8.85949V6.50371C8.85949 5.41885 9.74718 4.53125 10.832 4.53125H32.9526C34.0374 4.53125 34.9251 5.41904 34.9251 6.50371V11.1306H17.3596V9.30527C17.3596 8.92881 17.0525 8.62168 16.676 8.62168H16.6759ZM17.7642 7.83096C17.7642 8.2085 18.0702 8.51455 18.4478 8.51455H25.3367C25.7143 8.51455 26.0203 8.2085 26.0203 7.83096C26.0203 7.45342 25.7143 7.14736 25.3367 7.14736H18.4478C18.0702 7.14736 17.7642 7.45342 17.7642 7.83096ZM30.24 33.2302C30.3374 33.5938 30.1202 33.9699 29.7566 34.0674L25.2712 35.2691C24.9075 35.3666 24.5315 35.1494 24.434 34.7858L23.3738 30.8294C21.7808 31.1516 20.1972 30.743 19.0315 29.5508C18.4097 28.915 17.9693 28.1138 17.7396 27.2563C17.017 24.5592 18.4194 21.9804 21.1693 21.2435L25.7035 20.0285L34.9247 12.7797V12.4978H17.3596V20.177C17.3596 20.5534 17.0525 20.8605 16.676 20.8605H14.813V24.2549C14.813 24.5204 14.6723 24.7479 14.4348 24.8665C14.1973 24.9851 13.9309 24.9608 13.7187 24.8014L8.85949 21.1492V28.3322H16.6759C17.0524 28.3322 17.3595 28.6393 17.3595 29.0158V38.0624H34.925V30.4925L29.2897 29.6834L30.2401 33.2304L30.24 33.2302ZM17.3594 39.4295H34.9249V44.0563C34.9249 45.1411 34.0372 46.0288 32.9524 46.0288H10.832C9.74718 46.0288 8.85949 45.1411 8.85949 44.0563V41.9385H16.6759C17.0524 41.9385 17.3595 41.6313 17.3595 41.2549V39.4296L17.3594 39.4295ZM18.8383 42.7292C18.8383 43.1067 19.1443 43.4128 19.5219 43.4128H24.2624C24.64 43.4128 24.946 43.1067 24.946 42.7292C24.946 42.3517 24.64 42.0456 24.2624 42.0456H19.5219C19.1443 42.0456 18.8383 42.3517 18.8383 42.7292Z" fill="#161A1D"/>
</svg>
