<svg width="53" height="53" viewBox="0 0 53 53" fill="none" xmlns="http://www.w3.org/2000/svg">
<path d="M36.6532 22.4743C37.796 21.8419 39.204 21.8419 40.3468 22.4743L51.1526 28.4539C52.2957 29.0865 53 30.2557 53 31.5211V43.4789C53 44.7443 52.2957 45.9135 51.1526 46.5461L40.3468 52.5257C39.204 53.1581 37.796 53.1581 36.6532 52.5257L25.8474 46.5461C24.7043 45.9135 24 44.7443 24 43.4789V31.5211C24 30.2557 24.7043 29.0865 25.8474 28.4539L36.6532 22.4743Z" fill="#E06B9F"/>
<path fill-rule="evenodd" clip-rule="evenodd" d="M23 11.75C17.3391 11.75 12.75 16.3391 12.75 22C12.75 27.6609 17.3391 32.25 23 32.25C28.6609 32.25 33.25 27.6609 33.25 22C33.25 16.3391 28.6609 11.75 23 11.75ZM11.25 22C11.25 15.5107 16.5107 10.25 23 10.25C29.4893 10.25 34.75 15.5107 34.75 22C34.75 28.4893 29.4893 33.75 23 33.75C16.5107 33.75 11.25 28.4893 11.25 22Z" fill="black"/>
<path fill-rule="evenodd" clip-rule="evenodd" d="M31.4747 35.3639L35.3638 31.4749L43.4955 39.6066L39.6065 43.4957L31.4747 35.3639ZM33.5961 35.3639L39.6065 41.3743L41.3742 39.6066L35.3638 33.5962L33.5961 35.3639Z" fill="black"/>
<path fill-rule="evenodd" clip-rule="evenodd" d="M33.4193 34.48L29.8838 30.9444L30.9444 29.8838L34.48 33.4193L33.4193 34.48Z" fill="black"/>
<path fill-rule="evenodd" clip-rule="evenodd" d="M21.5303 17.4697C21.8232 17.7626 21.8232 18.2374 21.5303 18.5303L18.2374 21.8232C18.1398 21.9209 18.1398 22.0791 18.2374 22.1768L21.5303 25.4697C21.8232 25.7626 21.8232 26.2374 21.5303 26.5303C21.2374 26.8232 20.7626 26.8232 20.4697 26.5303L17.1768 23.2374C16.4934 22.554 16.4934 21.446 17.1768 20.7626L20.4697 17.4697C20.7626 17.1768 21.2374 17.1768 21.5303 17.4697Z" fill="#E06B9F"/>
<path fill-rule="evenodd" clip-rule="evenodd" d="M24.4697 17.4697C24.1768 17.7626 24.1768 18.2374 24.4697 18.5303L27.7626 21.8232C27.8602 21.9209 27.8602 22.0791 27.7626 22.1768L24.4697 25.4697C24.1768 25.7626 24.1768 26.2374 24.4697 26.5303C24.7626 26.8232 25.2374 26.8232 25.5303 26.5303L28.8232 23.2374C29.5066 22.554 29.5066 21.446 28.8232 20.7626L25.5303 17.4697C25.2374 17.1768 24.7626 17.1768 24.4697 17.4697Z" fill="#E06B9F"/>
</svg>
